<svg width="20" height="20" viewBox="0 0 20 20" fill="none" xmlns="http://www.w3.org/2000/svg"><path d="M4.544 6.654H.247v12.903h4.297V6.654zM18.646 7.832c-.903-.985-2.097-1.478-3.58-1.478a5.16 5.16 0 0 0-1.492.202 3.384 3.384 0 0 0-1.133.567 5.556 5.556 0 0 0-.735.677 5.581 5.581 0 0 0-.508.689V6.654H6.914l.013.625c.009.417.013 1.701.013 3.854s-.009 4.96-.026 8.425h4.284v-7.201c0-.443.047-.794.143-1.055.182-.443.458-.814.827-1.113.369-.3.827-.45 1.374-.45.746 0 1.295.259 1.647.775.351.517.527 1.23.527 2.142v6.901H20v-7.395c0-1.902-.451-3.345-1.354-4.33zM2.422.443c-.72 0-1.304.21-1.751.631C.223 1.495 0 2.027 0 2.67c0 .634.217 1.164.651 1.589.434.425 1.007.638 1.719.638h.026c.729 0 1.317-.213 1.764-.638.447-.425.666-.955.658-1.589-.009-.642-.23-1.174-.664-1.595C3.72.654 3.142.443 2.422.443z" fill="#005698"/></svg>