<svg width="103" height="56" viewBox="0 0 103 56" fill="none" xmlns="http://www.w3.org/2000/svg"><path d="M65.887 7.585s28.386-.91 24.302 13.77c-2.262 8.131-20.153 19.033-37.091 25.416-16.605 6.257-32.507 7.964-32.507 7.964s16.753-.7 35.376-6.127c15.339-4.47 30.89-12.854 39.589-20.738.333-.302.593-.657.866-.977 6.725-7.88 4.184-12.418 2.548-14.245-3.34-3.73-15.926-7.728-33.083-5.063z" fill="#484848"/><path d="M46.537 9.455c-.383 0-.763.017-1.14.017 1.166-.444 2.332-.92 3.494-1.359C65.495 1.857 81.397.167 81.397.167s-16.753.7-35.375 6.127c-15.34 4.47-30.89 12.853-39.59 20.738-.332.302-.592.657-.865.977-6.725 7.88-4.185 12.416-2.55 14.243 3.341 3.731 15.928 7.728 33.085 5.063 0 0-28.386.907-24.302-13.773 1.553-5.585 10.484-12.484 21.413-18.322a18.249 18.249 0 0 0-4.971 12.543c0 10.105 8.19 18.298 18.295 18.298 10.105 0 18.295-8.199 18.295-18.303 0-10.105-8.19-18.303-18.295-18.303zm-1.083 25.337c-6.47 0-11.715-5.245-11.715-11.716 0-6.471 5.244-11.716 11.715-11.716S57.17 16.605 57.17 23.076c0 6.47-5.245 11.715-11.716 11.715z" fill="#484848"/></svg>