<svg width="20" height="20" viewBox="0 0 20 20" fill="none" xmlns="http://www.w3.org/2000/svg"><g clip-path="url(#a)"><path d="M20 3.799a8.55 8.55 0 0 1-2.362.647A4.077 4.077 0 0 0 19.44 2.18a8.194 8.194 0 0 1-2.6.992A4.099 4.099 0 0 0 9.75 5.976c0 .325.027.638.095.935-3.409-.166-6.425-1.8-8.451-4.288A4.128 4.128 0 0 0 .83 4.694c0 1.42.732 2.679 1.822 3.407A4.05 4.05 0 0 1 .8 7.597v.045a4.119 4.119 0 0 0 3.285 4.03 4.09 4.09 0 0 1-1.075.134c-.262 0-.527-.015-.776-.07.531 1.624 2.039 2.818 3.831 2.856a8.238 8.238 0 0 1-5.084 1.75 7.67 7.67 0 0 1-.98-.057 11.543 11.543 0 0 0 6.29 1.84c7.544 0 11.67-6.25 11.67-11.668 0-.18-.007-.356-.016-.53A8.18 8.18 0 0 0 20 3.8z" fill="#005698"/></g><defs><clipPath id="a"><path fill="#fff" d="M0 0h20v20H0z"/></clipPath></defs></svg>