<svg width="415" height="70" viewBox="0 0 415 70" fill="none" xmlns="http://www.w3.org/2000/svg"><path d="M207.97 15.848c108.92 0 198.228-6.526 206.714-14.821L381.665 55.94S297.48 69.62 204.456 69.62c-87.345 0-169.96-13.68-169.96-13.68L.943.674C7.21 9.137 97.503 15.848 207.97 15.848z" fill="#176ED7"/><path d="M414.684 1.673l-32.823 55.374s-12.899 2.128-34.164 4.708l25.172-51.507c23.489-2.413 38.575-5.362 41.815-8.575z" fill="#4A8EE0"/><path d="M77.157 45.552c.224.267.594.428 1.11.479.258.026.511.008.76-.053.25-.062.525-.176.828-.344l.785 1.29a4.204 4.204 0 0 1-1.18.534c-.45.132-.974.168-1.567.109a4.006 4.006 0 0 1-1.322-.346 2.822 2.822 0 0 1-.945-.702 2.577 2.577 0 0 1-.534-1.015 3.516 3.516 0 0 1-.088-1.3c.05-.494.197-.975.44-1.445.242-.47.564-.88.962-1.23a4.24 4.24 0 0 1 1.385-.809 3.883 3.883 0 0 1 1.711-.19c.445.043.835.151 1.173.322.338.17.615.386.832.648.216.262.37.561.463.897.093.335.121.695.084 1.078-.023.247-.078.5-.163.758a4.706 4.706 0 0 1-.335.767c-1.89-.184-2.835-.277-4.726-.468-.007.412.102.752.327 1.02zm2.96-1.917c.056-.141.092-.288.107-.442a1.039 1.039 0 0 0-.193-.74c-.156-.214-.436-.34-.838-.38-.446-.045-.85.05-1.216.284-.365.235-.651.561-.858.979l2.997.299zM84.47 41.142l1.95.184-.258.691c.269-.196.556-.366.863-.508a1.995 1.995 0 0 1 1.038-.16c.47.043.848.189 1.132.437.283.247.58.961.58.961.06.016.715-.6 1.146-.791a2.848 2.848 0 0 1 1.43-.219c.618.055 1.088.275 1.412.66.325.385.46.889.405 1.51a3.114 3.114 0 0 1-.125.628c-.067.222-.14.441-.22.657-.525 1.439-.788 2.158-1.315 3.596l-1.963-.176c.543-1.47.814-2.205 1.355-3.676a2.75 2.75 0 0 0 .145-.607c.05-.564-.23-.873-.839-.927-.386-.035-.71.063-.972.294-.263.23-.47.545-.618.945-.557 1.505-.835 2.257-1.395 3.762l-1.962-.182c.548-1.469.822-2.203 1.367-3.672a2.79 2.79 0 0 0 .147-.606c.052-.564-.227-.874-.835-.931-.386-.036-.71.06-.974.29-.264.23-.47.544-.62.944l-1.408 3.757-1.962-.189c1.002-2.669 1.5-4.002 2.495-6.672zM95.55 49.046a1.817 1.817 0 0 1-.963-1.056 1.81 1.81 0 0 1-.084-.756 2.3 2.3 0 0 1 .322-1.028c.181-.293.414-.534.699-.725.284-.19.612-.323.98-.399.37-.076.765-.095 1.186-.06a6.033 6.033 0 0 1 1.918.47l.033-.088.072-.233c.024-.08.04-.17.049-.273a.712.712 0 0 0-.235-.606c-.177-.164-.51-.267-.998-.308a4.506 4.506 0 0 0-.993.026c-.328.045-.62.108-.878.19l-.177-1.561a7.058 7.058 0 0 1 1.212-.252 6.75 6.75 0 0 1 1.385-.02c.933.079 1.617.32 2.05.724.432.404.622.944.567 1.617-.014.18-.044.353-.088.521a7.758 7.758 0 0 1-.15.504c-.53 1.482-.796 2.221-1.328 3.703l-1.9-.158.274-.775c-.3.275-.63.477-.988.606a2.704 2.704 0 0 1-1.157.141 2.363 2.363 0 0 1-.808-.204zm2.356-1.114c.19-.057.37-.144.535-.259.165-.114.31-.25.437-.408.125-.157.221-.327.289-.51l.066-.174a3.681 3.681 0 0 0-1.269-.351c-.412-.035-.757.033-1.035.203a.925.925 0 0 0-.46.752.656.656 0 0 0 .2.546c.151.15.366.237.642.26.206.017.403-.002.595-.06zM104.301 42.87l1.953.154c-.953 2.686-1.432 4.029-2.392 6.713-.786-.062-1.178-.093-1.964-.157.965-2.683 1.446-4.025 2.403-6.71zm.824-2.433c.821.065 1.232.098 2.052.161l-.608 1.69c-.822-.063-1.233-.095-2.054-.16l.61-1.69zM109.037 40.74l1.95.145a2690.458 2690.458 0 0 1-3.223 9.155l-1.964-.151c1.085-3.048 2.163-6.098 3.237-9.15zM115.83 43.731c.781.055 1.172.082 1.953.135l-.467 1.358c.387-.488.798-.853 1.232-1.094.433-.24.932-.32 1.494-.24l-.689 1.999-.103-.007c-.653-.043-1.232.114-1.739.474-.508.36-.914.979-1.217 1.859-.33.955-.495 1.432-.827 2.387-.786-.055-1.179-.082-1.965-.139.935-2.692 1.401-4.038 2.328-6.732zM121.877 49.252c.233.26.609.407 1.125.44.259.016.511-.01.758-.08.246-.07.518-.196.814-.374l.829 1.26a4.19 4.19 0 0 1-1.158.578c-.447.147-.967.202-1.562.164a4.002 4.002 0 0 1-1.332-.299 2.814 2.814 0 0 1-.968-.668 2.581 2.581 0 0 1-.569-.996 3.515 3.515 0 0 1-.134-1.294c.033-.496.162-.982.388-1.46.226-.479.532-.9.918-1.265.386-.365.836-.65 1.353-.857a3.879 3.879 0 0 1 1.702-.252c.446.028.84.123 1.182.281.343.159.629.365.854.619.226.254.39.547.495.879.105.332.145.69.121 1.075a3.48 3.48 0 0 1-.137.763c-.077.261-.179.52-.306.778a1080.17 1080.17 0 0 1-4.736-.3c.008.413.129.749.363 1.008zm2.887-2.02c.052-.143.083-.292.092-.446a1.038 1.038 0 0 0-.218-.733c-.164-.207-.448-.324-.851-.35a1.849 1.849 0 0 0-1.204.329 2.39 2.39 0 0 0-.822 1.007c1.202.078 1.802.117 3.003.192zM129.022 44.584l1.955.115-.248.731c.316-.255.63-.452.944-.588a2.272 2.272 0 0 1 1.048-.172c.377.021.723.106 1.037.257.314.15.585.359.811.624.227.265.396.585.509.96.113.374.158.792.133 1.254a4.303 4.303 0 0 1-1.346 2.94 3.885 3.885 0 0 1-1.27.798c-.468.179-.948.255-1.44.227-.543-.031-.979-.16-1.308-.387a2.621 2.621 0 0 1-.798-.876 1114.84 1114.84 0 0 1-.996 3.01c-.787-.047-1.182-.071-1.969-.12.983-2.923 1.963-5.847 2.938-8.773zm2.749 5.342c.252-.105.479-.26.68-.467.202-.206.369-.451.501-.734s.209-.6.228-.948c.025-.452-.086-.81-.334-1.076-.248-.266-.591-.412-1.029-.437-.275-.015-.54.031-.796.14a2.188 2.188 0 0 0-.693.474 2.57 2.57 0 0 0-.737 1.641c-.025.435.092.793.352 1.078.26.284.61.44 1.049.465.267.014.527-.03.779-.136zM138.58 42.622l1.951.1c-.995 3.078-1.997 6.154-3.004 9.228-.787-.041-1.18-.062-1.967-.105 1.014-3.072 2.019-6.147 3.02-9.223zM141.668 45.272l1.955.095c-.872 2.714-1.31 4.07-2.19 6.782l-1.966-.099c.884-2.71 1.324-4.066 2.201-6.778zm.752-2.456c.821.04 1.233.059 2.054.097l-.557 1.71-2.057-.1.56-1.707zM146.223 50.596c.239.255.617.394 1.133.417.259.012.51-.02.756-.095.244-.075.514-.204.807-.389l.852 1.245a4.19 4.19 0 0 1-1.146.599c-.443.156-.963.221-1.558.195a3.988 3.988 0 0 1-1.336-.273 2.813 2.813 0 0 1-.981-.65c-.263-.273-.46-.6-.588-.984a3.523 3.523 0 0 1-.16-1.293c.024-.495.144-.984.36-1.467a4.19 4.19 0 0 1 2.23-2.165 3.868 3.868 0 0 1 1.696-.283c.445.02.841.105 1.187.257.346.152.635.352.865.601.23.25.401.54.512.87.11.33.158.688.142 1.073-.01.248-.051.503-.123.765a4.703 4.703 0 0 1-.291.784c-1.896-.08-2.844-.121-4.739-.208.015.412.143.746.382 1zm2.847-2.077a1.6 1.6 0 0 0 .084-.447 1.037 1.037 0 0 0-.233-.729c-.167-.204-.453-.315-.857-.333a1.849 1.849 0 0 0-1.197.352 2.389 2.389 0 0 0-.802 1.023c1.202.056 1.803.082 3.005.134zM153.178 52.75a4.744 4.744 0 0 1-.826-.265 4.518 4.518 0 0 1-.766-.417 3.53 3.53 0 0 1-.663-.58l1.186-1.12c.346.374.703.632 1.068.775.365.143.703.221 1.013.233.259.01.464-.032.614-.13a.517.517 0 0 0 .237-.44c.005-.13-.064-.245-.207-.35a3.34 3.34 0 0 0-.569-.323c-.267-.123-.525-.25-.761-.383a3.467 3.467 0 0 1-.622-.442 1.777 1.777 0 0 1-.417-.55 1.485 1.485 0 0 1-.132-.72 2.36 2.36 0 0 1 .231-.947 2.23 2.23 0 0 1 .579-.74c.245-.205.54-.361.888-.472.348-.11.737-.158 1.166-.141.284.01.554.049.814.114a4.608 4.608 0 0 1 1.37.59c.189.123.353.252.495.385l-1.101 1.193c-.325-.278-.631-.478-.919-.6a2.432 2.432 0 0 0-.858-.2c-.241-.01-.429.035-.566.132a.509.509 0 0 0-.217.416c-.005.137.07.262.225.375.155.113.38.238.664.378.218.108.44.227.664.347.224.12.423.26.598.42.175.161.315.344.419.55.105.204.152.44.143.705a2.324 2.324 0 0 1-.252 1.005 2.233 2.233 0 0 1-.616.741c-.259.2-.565.35-.919.447a3.743 3.743 0 0 1-1.151.123 4.606 4.606 0 0 1-.812-.11zM156.822 54.084c.537-.023.939-.14 1.206-.348a1.46 1.46 0 0 0 .523-.861l-.802-.03.629-2.031c.838.03 1.257.044 2.094.072-.209.687-.315 1.03-.525 1.717-.254.839-.628 1.434-1.125 1.785-.497.35-1.13.52-1.9.51l-.1-.814zM167.677 46.284c.783.023 1.174.034 1.957.055l-.227.738c.308-.265.617-.471.925-.617a2.276 2.276 0 0 1 1.043-.204c.378.01.726.084 1.044.225.318.14.596.34.83.598.234.259.414.573.538.944.125.372.182.789.171 1.25a4.32 4.32 0 0 1-1.255 2.98 3.877 3.877 0 0 1-1.244.836c-.463.194-.94.285-1.432.272-.543-.015-.983-.13-1.318-.347-.335-.217-.61-.5-.824-.852l-.903 3.04-1.971-.059c.893-2.952 1.781-5.905 2.666-8.859zm2.91 5.256c.248-.113.471-.276.666-.488a2.65 2.65 0 0 0 .477-.75c.123-.287.19-.605.199-.955.011-.452-.111-.806-.367-1.064s-.603-.394-1.041-.406a1.757 1.757 0 0 0-.792.165 2.19 2.19 0 0 0-.677.494 2.562 2.562 0 0 0-.686 1.663c-.012.435.117.79.385 1.067.268.276.622.42 1.062.432.267.007.525-.045.774-.158zM177.063 44.027c.781.017 1.172.025 1.953.04-.364 1.274-.547 1.91-.913 3.185.253-.216.536-.406.848-.57a2.135 2.135 0 0 1 1.048-.234c.618.011 1.108.198 1.471.56.363.36.539.853.529 1.478a3.186 3.186 0 0 1-.082.635c-.051.226-.11.45-.173.67-.423 1.472-.635 2.208-1.061 3.679-.787-.014-1.179-.022-1.966-.038.438-1.505.656-2.257 1.092-3.762.028-.094.052-.199.072-.315.019-.115.029-.215.031-.301.005-.274-.074-.486-.24-.635-.164-.149-.398-.227-.698-.233-.387-.007-.708.113-.962.361-.255.248-.442.577-.562.986-.45 1.54-.676 2.31-1.129 3.85l-1.968-.044a2508.3 2508.3 0 0 0 2.71-9.312zM184.937 53.456a3.03 3.03 0 0 1-1.038-.676 2.878 2.878 0 0 1-.651-1.019 3.443 3.443 0 0 1-.211-1.28 3.724 3.724 0 0 1 .334-1.484 4.155 4.155 0 0 1 2.152-2.124 3.726 3.726 0 0 1 1.57-.312 3.81 3.81 0 0 1 1.38.254 3.05 3.05 0 0 1 1.036.674c.285.285.502.623.653 1.014.15.391.223.818.218 1.28a3.663 3.663 0 0 1-.331 1.485 4.234 4.234 0 0 1-.874 1.262 4.239 4.239 0 0 1-1.286.87 3.702 3.702 0 0 1-1.564.313 3.811 3.811 0 0 1-1.388-.257zm2.325-1.605c.248-.143.459-.324.634-.542a2.55 2.55 0 0 0 .56-1.498c.006-.509-.127-.9-.398-1.175-.272-.274-.631-.415-1.078-.42a1.566 1.566 0 0 0-.822.208 2.254 2.254 0 0 0-.633.54 2.56 2.56 0 0 0-.41.73c-.098.27-.15.527-.153.768-.008.508.124.9.396 1.175s.632.416 1.08.422c.302.004.577-.065.824-.208zM192.755 46.751l1.957.016-.198.71c.25-.218.53-.412.84-.58.31-.167.66-.25 1.046-.247.618.003 1.11.182 1.478.539.367.356.55.848.547 1.472a3.153 3.153 0 0 1-.074.635c-.048.227-.103.451-.164.673-.403 1.477-.606 2.215-1.012 3.692a921.26 921.26 0 0 1-1.967-.011c.419-1.51.628-2.266 1.045-3.776a2.808 2.808 0 0 0 .094-.618c.001-.274-.081-.485-.248-.632-.166-.147-.401-.221-.701-.223-.387-.003-.706.121-.957.373-.252.251-.434.582-.549.993-.43 1.546-.646 2.32-1.079 3.865l-1.967-.018a2430.51 2430.51 0 0 0 1.909-6.863zM201.708 51.898c.249.244.633.367 1.151.368.258 0 .508-.042.75-.128.24-.085.503-.228.788-.425l.906 1.206c-.31.257-.683.474-1.118.65-.436.175-.952.263-1.547.262-.501 0-.95-.072-1.347-.213a2.816 2.816 0 0 1-1.008-.606 2.583 2.583 0 0 1-.631-.958 3.532 3.532 0 0 1-.216-1.284 4.04 4.04 0 0 1 .296-1.482 4.201 4.201 0 0 1 2.131-2.26 3.862 3.862 0 0 1 1.68-.358c.447 0 .846.068 1.198.205.352.136.648.323.889.563.241.239.424.521.549.846.125.325.189.68.19 1.065 0 .248-.029.505-.089.77a4.73 4.73 0 0 1-.257.797c-1.896.004-2.844.003-4.74 0 .034.41.176.738.425.982zm2.752-2.2c.043-.145.064-.295.064-.45a1.04 1.04 0 0 0-.265-.718c-.176-.196-.466-.294-.869-.294-.447 0-.841.134-1.18.403a2.39 2.39 0 0 0-.756 1.058c1.202.002 1.803.003 3.006.002zM213.109 53.571a3.002 3.002 0 0 1-1.027-.621 2.82 2.82 0 0 1-.673-.97 3.279 3.279 0 0 1-.246-1.277 3.86 3.86 0 0 1 .319-1.588 4.16 4.16 0 0 1 2.162-2.165 3.904 3.904 0 0 1 1.562-.334c.378-.004.717.033 1.018.11.301.078.566.183.795.317.229.133.429.29.598.471.17.181.315.373.438.576l-1.484 1.067a2.553 2.553 0 0 0-.593-.642c-.221-.165-.525-.245-.911-.242a1.565 1.565 0 0 0-.746.2c-.24.13-.449.306-.628.527-.178.22-.322.476-.432.77a2.557 2.557 0 0 0-.161.915c.004.446.135.8.396 1.06s.584.387.972.384c.302-.003.573-.062.813-.18.24-.117.489-.289.745-.514l1.021 1.26c-.359.33-.74.591-1.144.788-.403.197-.898.298-1.485.303a3.672 3.672 0 0 1-1.309-.215zM220.376 53.483a3.05 3.05 0 0 1-1.057-.648 2.886 2.886 0 0 1-.678-1 3.422 3.422 0 0 1-.247-1.273 3.725 3.725 0 0 1 .291-1.493c.201-.481.48-.909.836-1.281a4.235 4.235 0 0 1 1.257-.902 3.713 3.713 0 0 1 1.559-.357c.515-.007.977.065 1.387.217a3.04 3.04 0 0 1 1.054.643c.293.278.519.61.681.997.161.387.247.811.255 1.273a3.666 3.666 0 0 1-.29 1.494 4.216 4.216 0 0 1-2.099 2.192c-.484.23-1.002.349-1.555.357a3.836 3.836 0 0 1-1.394-.22zm2.278-1.67c.244-.15.45-.337.619-.56.169-.222.299-.467.389-.735.091-.269.133-.529.129-.778-.008-.509-.151-.896-.431-1.163-.279-.267-.642-.397-1.089-.39a1.567 1.567 0 0 0-.815.23c-.243.15-.449.337-.617.56a2.544 2.544 0 0 0-.39.74c-.092.273-.136.53-.132.772.006.508.149.896.429 1.164.279.267.643.398 1.091.392.302-.005.574-.082.817-.233zM228.002 46.561c.783-.015 1.175-.023 1.957-.04l-.178.716c.244-.226.519-.426.824-.603a2.132 2.132 0 0 1 1.037-.277c.618-.014 1.115.152 1.493.498.377.346.573.832.588 1.456.005.197-.014.41-.056.637-.042.228-.09.454-.145.678-.362 1.488-.543 2.231-.908 3.719-.787.018-1.181.027-1.968.043.376-1.521.564-2.282.938-3.804a2.722 2.722 0 0 0 .078-.619c-.006-.274-.095-.484-.266-.626-.171-.142-.406-.21-.707-.203-.387.008-.702.142-.946.4s-.418.594-.521 1.008c-.386 1.558-.581 2.336-.97 3.893-.787.016-1.179.023-1.966.037.69-2.765 1.033-4.147 1.716-6.913zM235.261 46.399c.803-.02 1.205-.03 2.008-.052l.432 4.572c1.051-1.862 1.574-2.793 2.617-4.658l2.098-.062a1482.142 1482.142 0 0 1-4.354 7.06l-1.785.048a4061.63 4061.63 0 0 1-1.016-6.908zM244.744 51.229c.258.236.645.345 1.162.328.258-.009.507-.06.745-.154s.496-.243.773-.45l.947 1.174a4.188 4.188 0 0 1-1.096.687c-.429.19-.942.296-1.537.316-.5.017-.951-.04-1.353-.168a2.82 2.82 0 0 1-1.027-.571 2.579 2.579 0 0 1-.663-.935 3.504 3.504 0 0 1-.26-1.277 4.214 4.214 0 0 1 1.034-2.839c.349-.4.77-.728 1.264-.984a3.859 3.859 0 0 1 1.667-.416c.446-.015.847.04 1.204.164.356.124.658.303.907.533.249.231.442.507.578.827.136.32.212.673.226 1.058.008.248-.012.505-.063.773a4.72 4.72 0 0 1-.229.805c-1.895.068-2.842.1-4.737.162.048.41.2.731.458.967zm2.675-2.292c.038-.147.055-.298.049-.453a1.039 1.039 0 0 0-.289-.709c-.183-.19-.476-.279-.88-.265a1.848 1.848 0 0 0-1.165.444c-.331.28-.571.642-.72 1.083 1.202-.038 1.803-.058 3.005-.1zM251.396 45.89l1.956-.077-.319 1.4c.332-.528.7-.934 1.105-1.22.406-.286.892-.419 1.459-.4l-.468 2.062-.104.005c-.653.027-1.212.246-1.678.658-.466.413-.801 1.072-1.007 1.98l-.566 2.462c-.786.03-1.179.043-1.965.072.639-2.778.956-4.165 1.587-6.943zM257.261 52.615a4.567 4.567 0 0 1-1.643-.548 3.49 3.49 0 0 1-.706-.523L256 50.33c.376.344.753.572 1.128.684.376.113.719.163 1.029.15.258-.012.458-.072.6-.18a.514.514 0 0 0 .2-.46c-.005-.128-.084-.237-.235-.33a3.373 3.373 0 0 0-.593-.276 10.32 10.32 0 0 1-.789-.319 3.51 3.51 0 0 1-.657-.389 1.78 1.78 0 0 1-.46-.515 1.48 1.48 0 0 1-.191-.704 2.376 2.376 0 0 1 .153-.964c.117-.3.289-.563.516-.786.227-.224.508-.405.846-.544.338-.138.72-.217 1.149-.236.283-.012.557.004.821.048a4.605 4.605 0 0 1 1.413.476c.198.107.373.22.525.342l-.999 1.279c-.347-.25-.669-.424-.966-.522a2.43 2.43 0 0 0-.871-.13c-.24.011-.424.072-.553.18a.506.506 0 0 0-.182.431c.006.137.091.255.255.355.163.1.398.207.692.324.227.09.458.19.691.29.232.101.442.225.629.37.188.146.343.317.464.513.121.195.187.427.199.691a2.232 2.232 0 0 1-.721 1.812c-.24.22-.533.395-.877.52a3.765 3.765 0 0 1-1.137.217 4.593 4.593 0 0 1-.818-.042zM263.018 52.273a1.814 1.814 0 0 1-.651-.354 1.805 1.805 0 0 1-.44-.564 1.82 1.82 0 0 1-.183-.737 2.306 2.306 0 0 1 .184-1.062c.14-.315.339-.585.595-.811.256-.227.563-.402.919-.526a4.13 4.13 0 0 1 1.165-.217 6.036 6.036 0 0 1 1.961.212l.021-.091.04-.24c.013-.082.017-.175.012-.277a.712.712 0 0 0-.313-.57c-.196-.139-.539-.197-1.028-.173-.334.017-.66.07-.979.157-.318.088-.6.19-.844.304l-.381-1.523a7.006 7.006 0 0 1 1.166-.41c.424-.11.881-.177 1.369-.202.934-.046 1.642.102 2.124.446.481.344.74.854.775 1.528.009.18.003.356-.018.528a7.175 7.175 0 0 1-.083.519 1733.97 1733.97 0 0 1-.826 3.846l-1.9.095.167-.805c-.261.313-.56.557-.897.732a2.695 2.695 0 0 1-1.127.292 2.389 2.389 0 0 1-.828-.097zm2.187-1.415a1.86 1.86 0 0 0 .495-.326c.149-.136.275-.29.378-.462.104-.172.177-.353.219-.544l.043-.182a3.662 3.662 0 0 0-1.302-.18c-.412.02-.745.133-.999.338a.927.927 0 0 0-.356.807c.01.214.101.385.271.514.17.128.393.186.669.173.206-.01.4-.056.582-.138zM270.47 51.638a1.235 1.235 0 0 1-.489-.942 2.85 2.85 0 0 1 .01-.425c.014-.138.039-.285.074-.442l.672-3.167-.823.044.362-1.677.823-.044.381-1.782 1.951-.107-.379 1.783 1.621-.092-.358 1.68-1.622.09-.615 2.936a.872.872 0 0 0-.029.163.985.985 0 0 0-.006.149c.015.274.2.401.553.382.155-.008.319-.037.493-.085.175-.048.342-.11.501-.188l-.36 1.678c-.395.21-.864.33-1.407.36-.595.032-1.046-.073-1.353-.314zM276.202 44.7l1.954-.115c-.577 2.791-.867 4.187-1.453 6.977-.786.046-1.179.067-1.964.112.589-2.79.882-4.184 1.463-6.975zm.486-2.524c.821-.047 1.231-.072 2.051-.121l-.371 1.758c-.822.05-1.234.073-2.056.12l.376-1.757zM281.085 51.217a3.042 3.042 0 0 1-1.087-.597 2.865 2.865 0 0 1-.725-.965c-.178-.38-.282-.8-.309-1.261a3.713 3.713 0 0 1 .22-1.505c.177-.49.435-.93.773-1.32.338-.389.742-.71 1.212-.962a3.723 3.723 0 0 1 1.541-.43 3.81 3.81 0 0 1 1.396.149c.418.132.778.329 1.084.592.306.263.549.584.729.962.179.379.284.798.314 1.26a3.654 3.654 0 0 1-.218 1.506 4.196 4.196 0 0 1-1.991 2.29 3.698 3.698 0 0 1-1.536.43 3.814 3.814 0 0 1-1.403-.15zm2.196-1.779c.236-.161.433-.357.591-.588.158-.23.275-.481.353-.754.077-.272.108-.533.092-.782-.032-.508-.195-.888-.486-1.14-.292-.254-.661-.367-1.107-.339-.3.019-.568.11-.804.27a2.267 2.267 0 0 0-.59.588c-.158.23-.276.483-.354.76a2.355 2.355 0 0 0-.095.776c.031.507.193.888.486 1.141.291.254.662.367 1.109.34.301-.02.569-.11.805-.272zM288.372 43.936c.781-.052 1.171-.08 1.953-.133l-.145.723a4.61 4.61 0 0 1 .795-.643c.297-.19.638-.299 1.023-.326.616-.044 1.122.098 1.516.426.393.328.612.803.657 1.426.014.197.006.41-.025.64-.031.23-.069.457-.113.683-.291 1.503-.436 2.255-.729 3.759l-1.963.137c.303-1.538.453-2.306.754-3.844.019-.096.033-.203.043-.32.008-.116.011-.217.005-.302-.019-.274-.118-.478-.296-.612s-.416-.19-.716-.17c-.386.027-.694.176-.926.446-.231.27-.389.613-.472 1.032-.312 1.574-.468 2.36-.782 3.934l-1.964.132c.558-2.795.835-4.192 1.385-6.988zM297.016 50.298a4.702 4.702 0 0 1-.85-.168 4.536 4.536 0 0 1-.809-.327 3.472 3.472 0 0 1-.724-.501l1.05-1.248c.387.332.771.548 1.15.65.379.1.723.139 1.033.115.258-.019.456-.086.594-.2a.512.512 0 0 0 .187-.463c-.01-.128-.092-.236-.246-.323a3.348 3.348 0 0 0-.602-.257c-.279-.092-.55-.189-.799-.294a3.503 3.503 0 0 1-.668-.37 1.785 1.785 0 0 1-.477-.499 1.475 1.475 0 0 1-.212-.698 2.362 2.362 0 0 1 .123-.968c.107-.304.27-.572.49-.803.22-.23.496-.42.829-.569.334-.149.714-.24 1.142-.273.283-.02.556-.013.822.023a4.64 4.64 0 0 1 1.428.43c.201.1.38.209.535.326-.383.524-.574.786-.959 1.31-.354-.24-.682-.403-.982-.492a2.42 2.42 0 0 0-.873-.101c-.24.018-.423.084-.548.196a.504.504 0 0 0-.168.437c.01.137.099.252.265.347.167.095.404.194.702.302.229.083.464.175.7.268.235.094.449.21.641.35.192.14.352.306.479.498s.201.42.221.685a2.33 2.33 0 0 1-.135 1.027 2.23 2.23 0 0 1-.529.806 2.6 2.6 0 0 1-.861.549c-.34.137-.716.22-1.129.252-.259.019-.532.013-.82-.017zM305.939 42.625c.791-.064 1.186-.097 1.977-.163l.333 4.158c.829-1.753 1.242-2.631 2.065-4.386l1.68-.144.544 4.179c.762-1.746 1.14-2.62 1.896-4.367.775-.068 1.163-.103 1.938-.173a1597.783 1597.783 0 0 1-3.404 7.26l-1.768.152-.551-4.191a1344.02 1344.02 0 0 1-2.133 4.417l-1.756.146-.821-6.888zM317.681 41.61c.779-.07 1.17-.106 1.95-.178-.485 2.808-.73 4.212-1.224 7.02-.784.072-1.177.108-1.961.178.498-2.807.745-4.212 1.235-7.02zm.402-2.536l2.048-.19-.314 1.77-2.05.188.316-1.768zM321.425 47.903a1.228 1.228 0 0 1-.527-.92 2.642 2.642 0 0 1-.008-.426c.009-.139.028-.286.056-.444.219-1.277.328-1.915.545-3.192l-.822.077.295-1.69.821-.078.309-1.796c.779-.073 1.168-.11 1.946-.186l-.306 1.797 1.616-.156-.289 1.69-1.618.157-.497 2.959a.981.981 0 0 0-.022.313c.026.273.215.393.567.36.154-.015.317-.05.49-.106.172-.055.337-.125.493-.209l-.293 1.692c-.386.226-.85.365-1.391.417-.594.056-1.049-.03-1.365-.26zM327.195 38.205a983.7 983.7 0 0 0 1.944-.194c-.209 1.308-.314 1.963-.526 3.271.226-.244.484-.467.775-.666.29-.2.628-.32 1.013-.359.615-.062 1.124.065 1.528.38.403.315.637.784.701 1.406.02.195.018.408-.006.639-.024.23-.053.459-.09.686-.245 1.512-.369 2.268-.616 3.78-.783.08-1.175.12-1.959.198.257-1.547.384-2.32.638-3.866.016-.097.027-.204.033-.32a2.097 2.097 0 0 0-.005-.303c-.028-.274-.133-.475-.315-.603-.181-.128-.421-.178-.721-.148-.385.04-.689.197-.912.474-.223.277-.37.625-.441 1.046a1783.56 1783.56 0 0 1-.662 3.957c-.783.078-1.175.116-1.959.192.533-3.19 1.061-6.38 1.58-9.57zM339.647 46.264a2.432 2.432 0 0 1-.905-.484 2.616 2.616 0 0 1-.659-.865 3.625 3.625 0 0 1-.332-1.216 4.325 4.325 0 0 1 .854-3.12 3.911 3.911 0 0 1 1.117-.992 3.42 3.42 0 0 1 1.376-.46c.538-.06.987-.006 1.347.163.36.168.67.411.931.73.214-1.433.32-2.15.532-3.583.777-.087 1.165-.131 1.942-.22-.476 3.199-.961 6.397-1.45 9.594l-1.957.218.123-.77c-.27.308-.549.556-.837.744a2.266 2.266 0 0 1-1.011.344 2.752 2.752 0 0 1-1.071-.083zm2.46-1.92c.239-.15.444-.345.613-.581a2.536 2.536 0 0 0 .451-1.738c-.048-.43-.224-.763-.527-.999-.304-.236-.673-.33-1.109-.282-.265.03-.513.116-.744.261-.23.146-.428.336-.592.572a2.62 2.62 0 0 0-.445 1.774c.049.448.218.782.506 1.003.288.22.652.307 1.089.259.266-.03.518-.12.758-.27zM348.805 43.52c.276.213.672.291 1.186.231.258-.03.501-.102.731-.215a3.43 3.43 0 0 0 .734-.513l1.041 1.091a4.18 4.18 0 0 1-1.036.776c-.413.225-.916.373-1.508.442-.497.058-.952.039-1.363-.056a2.809 2.809 0 0 1-1.072-.484 2.578 2.578 0 0 1-.739-.878 3.537 3.537 0 0 1-.364-1.25 4.04 4.04 0 0 1 .121-1.506 4.201 4.201 0 0 1 1.856-2.494 3.876 3.876 0 0 1 1.629-.552c.444-.052.849-.03 1.215.064.366.094.682.246.949.456.268.21.483.468.645.776.162.309.266.653.312 1.035.029.247.029.506.001.776s-.083.545-.163.821c-1.884.225-2.827.336-4.712.553.081.405.26.713.537.927zm2.479-2.506c.026-.15.03-.3.012-.454a1.039 1.039 0 0 0-.347-.683c-.198-.174-.498-.238-.899-.191-.445.052-.82.231-1.127.538a2.395 2.395 0 0 0-.628 1.14c1.196-.139 1.794-.209 2.989-.35zM356.477 44.328a3.005 3.005 0 0 1-1.092-.5 2.831 2.831 0 0 1-.779-.89 3.267 3.267 0 0 1-.39-1.239 3.826 3.826 0 0 1 .139-1.614c.159-.514.4-.974.723-1.38a4.224 4.224 0 0 1 1.182-1.017 3.91 3.91 0 0 1 1.516-.51 3.949 3.949 0 0 1 1.025-.005c.309.043.584.118.826.224.243.107.459.24.648.4.189.161.356.335.501.522l-1.355 1.23a2.547 2.547 0 0 0-.664-.572c-.238-.139-.549-.184-.933-.136a1.565 1.565 0 0 0-.719.283 2.092 2.092 0 0 0-.565.594c-.152.24-.267.511-.343.814a2.536 2.536 0 0 0-.056.928c.054.443.226.78.514 1.008.289.23.625.32 1.011.272a1.87 1.87 0 0 0 .788-.271c.225-.145.453-.344.682-.596l1.159 1.136a4.762 4.762 0 0 1-1.048.912c-.379.242-.861.398-1.444.47a3.663 3.663 0 0 1-1.326-.063zM362.255 36.746a991.9 991.9 0 0 0 1.943-.249c-.386 2.825-.58 4.236-.973 7.06-.782.1-1.174.15-1.955.248.398-2.823.595-4.235.985-7.059zm.312-2.55c.816-.104 1.225-.156 2.041-.262l-.251 1.779-2.044.262.254-1.779zM367.103 43.136a4.714 4.714 0 0 1-1.685-.403 3.515 3.515 0 0 1-.752-.46c.393-.52.589-.782.981-1.304.406.31.8.505 1.185.585.384.08.731.098 1.039.058.257-.034.452-.112.584-.233a.514.514 0 0 0 .159-.473c-.017-.127-.104-.23-.262-.308a3.407 3.407 0 0 0-.617-.224c-.285-.076-.56-.158-.815-.25a3.537 3.537 0 0 1-.689-.33 1.779 1.779 0 0 1-.504-.472 1.477 1.477 0 0 1-.251-.686 2.344 2.344 0 0 1 .07-.973c.09-.31.237-.585.444-.828a2.6 2.6 0 0 1 .798-.615c.325-.168.7-.28 1.126-.336.282-.037.556-.045.823-.024a4.591 4.591 0 0 1 1.451.35c.207.09.391.188.553.296l-.885 1.36c-.368-.218-.705-.363-1.01-.435a2.418 2.418 0 0 0-.878-.052c-.239.031-.418.107-.537.226a.506.506 0 0 0-.144.446c.018.136.113.246.285.331.172.086.415.172.719.262.234.07.473.149.714.229.241.08.461.185.661.314s.369.286.506.47c.138.184.224.409.259.672a2.232 2.232 0 0 1-.562 1.868c-.221.24-.497.439-.83.595-.333.156-.704.26-1.116.315-.257.033-.53.043-.82.03zM372.506 35.4c.777-.106 1.165-.16 1.942-.265-.363 2.827-.546 4.24-.917 7.068l-1.953.263c.375-2.827.561-4.24.928-7.067zm.291-2.553l2.04-.28-.237 1.782-2.042.278.239-1.78zM377.88 41.521a3.04 3.04 0 0 1-1.13-.51 2.864 2.864 0 0 1-.798-.907 3.419 3.419 0 0 1-.406-1.233 3.714 3.714 0 0 1 .105-1.518c.139-.503.363-.962.671-1.376a4.24 4.24 0 0 1 1.136-1.051c.451-.288.953-.47 1.506-.548a3.824 3.824 0 0 1 1.406.04c.426.1.801.268 1.126.507.326.239.593.54.801.904.209.363.346.773.411 1.23a3.654 3.654 0 0 1-.102 1.52 4.227 4.227 0 0 1-.673 1.38 4.254 4.254 0 0 1-1.14 1.056 3.712 3.712 0 0 1-1.501.548 3.837 3.837 0 0 1-1.412-.042zm2.057-1.942c.224-.179.405-.39.545-.632.14-.241.239-.5.295-.778a2.3 2.3 0 0 0 .032-.788c-.071-.503-.262-.87-.573-1.1-.311-.23-.688-.314-1.131-.252a1.571 1.571 0 0 0-.782.332c-.222.18-.404.39-.544.63-.14.242-.239.504-.295.786a2.327 2.327 0 0 0-.035.78c.07.504.259.871.57 1.102.311.23.69.314 1.135.252.299-.042.56-.152.783-.332zM384.599 33.7l1.939-.284-.087.733c.215-.255.462-.488.744-.702.281-.213.613-.348.996-.405.612-.09 1.128.01 1.546.307.418.297.673.755.766 1.372.029.195.037.408.024.64-.014.23-.034.461-.06.69-.175 1.522-.264 2.281-.442 3.803l-1.949.29c.185-1.558.277-2.336.459-3.893a2.848 2.848 0 0 0 0-.624c-.04-.272-.154-.467-.342-.587-.187-.12-.43-.157-.728-.113-.384.056-.68.228-.89.515-.211.286-.342.641-.393 1.065-.191 1.594-.287 2.39-.48 3.984l-1.95.282c.343-2.83.512-4.244.847-7.073zM75.495 52.063l1.97.198-.266.689c.273-.195.564-.362.874-.502.31-.14.66-.19 1.049-.152.474.047.855.196 1.14.445.285.25.58.965.58.965.06.017.725-.595 1.161-.784a2.896 2.896 0 0 1 1.446-.207c.622.06 1.095.282 1.42.669.326.387.46.893.402 1.514a3.1 3.1 0 0 1-.13.627c-.069.22-.144.44-.225.655a2177.74 2177.74 0 0 1-1.348 3.587l-1.98-.19c.556-1.466.833-2.2 1.387-3.667a2.697 2.697 0 0 0 .15-.606c.053-.564-.228-.875-.842-.934-.389-.037-.716.058-.983.287-.266.228-.476.542-.629.94-.57 1.502-.856 2.252-1.428 3.753a946.64 946.64 0 0 1-1.98-.196c.561-1.464.841-2.197 1.4-3.662a2.694 2.694 0 0 0 .151-.607c.056-.563-.224-.874-.838-.935-.389-.04-.717.055-.984.283-.267.228-.478.54-.632.939-.575 1.5-.863 2.248-1.441 3.747-.792-.08-1.188-.12-1.98-.202a2098.65 2098.65 0 0 0 2.556-6.654zM86.636 60.046a1.806 1.806 0 0 1-.966-1.063 1.791 1.791 0 0 1-.08-.755 2.29 2.29 0 0 1 .33-1.026c.185-.292.421-.533.71-.721.288-.188.62-.32.992-.393.374-.073.772-.09 1.196-.052.381.035.728.095 1.04.179.31.084.609.185.894.305l.035-.087.072-.232c.025-.08.041-.17.05-.273a.708.708 0 0 0-.233-.607c-.177-.166-.511-.271-1.005-.316a4.585 4.585 0 0 0-1.003.019 5.444 5.444 0 0 0-.887.183c-.068-.625-.103-.937-.17-1.562a7.144 7.144 0 0 1 1.223-.242 6.91 6.91 0 0 1 1.4-.01c.941.085 1.63.33 2.064.738.435.408.623.948.564 1.622a3.012 3.012 0 0 1-.09.52 7.212 7.212 0 0 1-.156.501c-.542 1.478-.815 2.218-1.36 3.695a972.82 972.82 0 0 1-1.917-.17l.28-.774a2.933 2.933 0 0 1-1 .6c-.361.125-.75.17-1.168.131a2.425 2.425 0 0 1-.815-.21zm2.385-1.097c.193-.056.374-.14.542-.255.168-.113.314-.248.442-.405.128-.156.226-.325.295-.508l.068-.174a3.719 3.719 0 0 0-1.278-.36c-.416-.038-.766.028-1.047.195a.922.922 0 0 0-.469.75.65.65 0 0 0 .2.546c.152.151.367.24.645.266.209.019.409 0 .602-.055zM96.31 51.502l1.967.166a1928.12 1928.12 0 0 1-1.727 4.723c1.207-.846 1.809-1.27 3.012-2.118 1.027.084 1.541.126 2.568.208a978.27 978.27 0 0 1-3.58 2.4c.47 1.724.705 2.586 1.179 4.309l-2.217-.183c-.3-1.194-.448-1.793-.746-2.987l-1.068.708c-.3.825-.452 1.237-.753 2.062l-1.983-.17c1.122-3.037 2.239-6.076 3.348-9.118zM103.676 59.723c.232.263.609.415 1.13.455.261.02.516-.003.766-.07a3.46 3.46 0 0 0 .827-.36l.82 1.271c-.332.233-.724.42-1.176.562-.453.14-.98.188-1.58.141a4.07 4.07 0 0 1-1.34-.318 2.845 2.845 0 0 1-.969-.682 2.59 2.59 0 0 1-.562-1.004 3.479 3.479 0 0 1-.118-1.297 3.98 3.98 0 0 1 .41-1.455 4.2 4.2 0 0 1 2.322-2.087 3.946 3.946 0 0 1 1.721-.227 3.36 3.36 0 0 1 1.19.297c.344.163.628.374.852.631.225.257.388.553.489.886.101.334.138.693.109 1.077a3.492 3.492 0 0 1-.148.761c-.081.26-.188.518-.32.774-1.911-.144-2.865-.217-4.776-.368.003.413.12.75.353 1.013zm2.942-1.98a1.58 1.58 0 0 0 .098-.443 1.037 1.037 0 0 0-.211-.737c-.162-.21-.448-.33-.855-.362a1.876 1.876 0 0 0-1.219.31 2.393 2.393 0 0 0-.843.996c1.212.096 1.818.144 3.03.236zM110.95 55.158a1006 1006 0 0 0 1.973.143l-.476 1.356c.392-.487.807-.85 1.246-1.089.438-.239.942-.318 1.509-.235l-.7 1.997a12.1 12.1 0 0 0-.104-.007c-.659-.047-1.245.11-1.759.467-.513.358-.922.976-1.231 1.854l-.842 2.384-1.982-.146c.95-2.689 1.423-4.033 2.366-6.724zM116.092 62.498a4.826 4.826 0 0 1-.825-.289 4.627 4.627 0 0 1-.763-.439 3.573 3.573 0 0 1-.653-.6l1.229-1.084c.34.384.692.653 1.057.806a3.2 3.2 0 0 0 1.016.263c.261.018.468-.02.623-.112a.51.51 0 0 0 .251-.433c.009-.128-.057-.247-.198-.355a3.435 3.435 0 0 0-.566-.34 10.234 10.234 0 0 1-.756-.406 3.515 3.515 0 0 1-.616-.46 1.792 1.792 0 0 1-.406-.562 1.474 1.474 0 0 1-.113-.723 2.35 2.35 0 0 1 .261-.94c.15-.285.352-.526.605-.723a2.62 2.62 0 0 1 .91-.446c.355-.1.748-.136 1.181-.107.285.02.558.066.819.139a4.648 4.648 0 0 1 1.366.63c.188.128.35.262.489.4l-1.146 1.158c-.32-.286-.624-.495-.911-.626a2.468 2.468 0 0 0-.86-.225c-.242-.016-.434.022-.575.116a.506.506 0 0 0-.231.408c-.009.137.063.264.216.382s.377.25.659.398c.218.115.439.24.662.366.222.127.419.273.591.438.172.166.308.354.408.561.1.208.141.445.124.71-.025.376-.12.708-.283.997-.163.29-.377.531-.643.723a2.646 2.646 0 0 1-.939.42 3.818 3.818 0 0 1-1.165.088 4.71 4.71 0 0 1-.818-.133zM119.732 63.939c.543-.008.952-.111 1.228-.312.275-.201.459-.483.553-.845l-.809-.053.693-2.013 2.11.135-.578 1.7c-.279.831-.675 1.415-1.186 1.75-.511.337-1.156.488-1.932.454l-.079-.816zM130.248 56.423c.8.047 1.2.07 2 .114l-.247 4.164a1124.07 1124.07 0 0 0 2.676-4.055l1.701.092c-.017 1.685-.025 2.528-.04 4.213 1.005-1.623 1.507-2.434 2.506-4.06l1.961.1c-1.467 2.241-2.938 4.48-4.415 6.714l-1.789-.095.032-4.228a1025.03 1025.03 0 0 1-2.748 4.078c-.71-.04-1.065-.06-1.775-.102l.138-6.935zM142.796 62.195c.24.256.621.396 1.143.42a2.26 2.26 0 0 0 .763-.092 3.46 3.46 0 0 0 .814-.387l.859 1.247a4.251 4.251 0 0 1-1.159.597c-.447.155-.972.218-1.572.19a4.077 4.077 0 0 1-1.348-.276 2.854 2.854 0 0 1-.989-.652 2.584 2.584 0 0 1-.592-.987 3.503 3.503 0 0 1-.159-1.292 4.196 4.196 0 0 1 1.27-2.746 4.276 4.276 0 0 1 1.351-.88 3.94 3.94 0 0 1 1.712-.28c.45.022.849.108 1.198.261.349.153.639.355.871.605.232.25.404.541.515.871.112.33.159.688.142 1.072a3.474 3.474 0 0 1-.125.766 4.72 4.72 0 0 1-.296.783c-1.913-.084-2.869-.129-4.782-.22.015.41.143.745.384 1zm2.877-2.07c.05-.142.079-.291.086-.445a1.035 1.035 0 0 0-.234-.73c-.169-.204-.458-.316-.865-.335a1.877 1.877 0 0 0-1.209.348 2.393 2.393 0 0 0-.811 1.021c1.214.058 1.82.087 3.033.142zM150.873 64.153a2.633 2.633 0 0 1-.82-.863l-.318.998-1.971-.085c.98-3.083 1.956-6.167 2.924-9.254.788.033 1.182.05 1.97.08l-1 3.205a4.19 4.19 0 0 1 .942-.61 2.29 2.29 0 0 1 1.055-.191 2.78 2.78 0 0 1 1.051.24c.319.145.596.349.829.61.233.262.41.578.531.951.12.373.172.79.155 1.252a4.282 4.282 0 0 1-1.306 2.963c-.375.359-.798.63-1.267.818-.47.187-.953.271-1.449.251-.548-.022-.99-.144-1.326-.365zm1.915-1.448c.253-.109.479-.267.679-.476.2-.209.364-.456.492-.74.129-.285.199-.601.213-.95.017-.45-.101-.805-.356-1.066s-.603-.4-1.045-.418a1.79 1.79 0 0 0-.801.153 2.21 2.21 0 0 0-.691.481 2.564 2.564 0 0 0-.5.74c-.129.284-.2.587-.214.91-.018.433.107.79.374 1.069.267.279.623.426 1.067.444.269.011.53-.038.782-.147zM158.614 64.709a4.829 4.829 0 0 1-1.61-.675 3.562 3.562 0 0 1-.672-.576l1.191-1.125c.352.372.713.629 1.083.77.369.142.71.218 1.024.23.261.008.467-.037.618-.134a.511.511 0 0 0 .237-.442c.005-.128-.066-.244-.21-.347a3.378 3.378 0 0 0-.577-.322 10.72 10.72 0 0 1-.769-.38 3.544 3.544 0 0 1-.631-.439 1.785 1.785 0 0 1-.423-.549 1.468 1.468 0 0 1-.138-.718c.013-.342.09-.658.23-.948.14-.29.334-.539.58-.744.245-.206.544-.364.894-.476a3.47 3.47 0 0 1 1.176-.146c.286.01.559.048.822.112a4.713 4.713 0 0 1 1.386.584c.191.122.358.25.502.383l-1.106 1.196c-.33-.276-.64-.474-.932-.595a2.46 2.46 0 0 0-.865-.196c-.243-.008-.433.037-.571.135a.504.504 0 0 0-.217.416c-.005.137.072.262.228.374.157.113.384.237.672.376.221.108.446.225.673.344.226.118.428.258.605.418.178.16.32.343.426.547.106.204.155.44.146.704a2.23 2.23 0 0 1-.866 1.75c-.26.202-.567.352-.924.451-.356.1-.744.142-1.162.128a4.779 4.779 0 0 1-.82-.106zM165.264 57.965l1.975.059c-.828 2.73-1.244 4.093-2.079 6.822l-1.984-.062c.839-2.727 1.257-4.09 2.088-6.819zm.71-2.47l2.075.06-.529 1.719-2.077-.061.531-1.718zM168.252 64.665a1.23 1.23 0 0 1-.418-.978c.004-.145.02-.286.045-.423.026-.137.062-.282.11-.435l.933-3.102-.833-.023.501-1.642c.332.01.499.013.831.022.212-.698.317-1.047.527-1.745.789.021 1.184.032 1.973.051l-.524 1.746c.654.017.982.025 1.637.04l-.496 1.645-1.639-.041c-.342 1.151-.513 1.726-.857 2.877a.976.976 0 0 0-.06.308c-.007.274.168.416.525.425.156.004.324-.01.504-.044.179-.034.352-.083.519-.147l-.499 1.643c-.414.177-.895.26-1.444.245-.602-.016-1.047-.157-1.335-.422zM175.377 63.334c.247.25.631.38 1.153.392.262.005.514-.032.76-.113a3.47 3.47 0 0 0 .804-.407c.356.49.533.735.89 1.224-.319.251-.7.46-1.143.626-.443.166-.965.243-1.566.23a4.069 4.069 0 0 1-1.355-.241 2.846 2.846 0 0 1-1.004-.627 2.571 2.571 0 0 1-.617-.97 3.472 3.472 0 0 1-.191-1.288c.011-.497.121-.989.328-1.476.207-.487.497-.921.87-1.302.374-.381.815-.685 1.327-.914a3.936 3.936 0 0 1 1.704-.324c.45.01.852.087 1.205.23.352.144.647.339.885.582.238.244.417.53.537.858.119.327.176.684.169 1.068a3.447 3.447 0 0 1-.105.769 4.824 4.824 0 0 1-.275.79c-1.914-.035-2.871-.055-4.785-.098.026.411.162.742.409.991zm2.822-2.142c.046-.144.072-.294.075-.448a1.036 1.036 0 0 0-.253-.724c-.173-.2-.464-.304-.872-.312a1.873 1.873 0 0 0-1.199.378c-.349.262-.611.61-.785 1.042 1.214.027 1.82.04 3.034.064zM185.56 58.417l2.027.027.255 4.585c1.134-1.819 1.698-2.729 2.824-4.55.847.009 1.271.013 2.118.02-1.55 2.299-3.107 4.593-4.67 6.883-.721-.008-1.083-.014-1.804-.023-.302-2.777-.452-4.165-.75-6.942zM194.058 58.51l1.975.013c-.765 2.747-1.149 4.12-1.922 6.866l-1.986-.016a2118.98 2118.98 0 0 0 1.933-6.864zm.654-2.487l2.074.013-.488 1.73c-.832-.004-1.247-.007-2.079-.013l.493-1.73zM198.043 65.49a4.64 4.64 0 0 1-1.63-.625 3.556 3.556 0 0 1-.688-.555l1.155-1.163c.363.362.732.608 1.106.738.373.13.716.196 1.029.197.262.001.466-.05.614-.153a.51.51 0 0 0 .223-.448c0-.128-.073-.242-.22-.34a3.412 3.412 0 0 0-.586-.305c-.274-.113-.538-.23-.78-.356a3.535 3.535 0 0 1-.644-.42 1.797 1.797 0 0 1-.441-.534 1.478 1.478 0 0 1-.158-.714c.002-.342.068-.66.199-.955.132-.295.317-.548.556-.761.239-.213.533-.38.879-.503a3.472 3.472 0 0 1 1.171-.183c.285.001.561.03.825.086a4.706 4.706 0 0 1 1.403.542c.195.115.365.238.513.366l-1.068 1.23c-.338-.265-.654-.454-.949-.566a2.463 2.463 0 0 0-.871-.169c-.243 0-.432.05-.566.152a.505.505 0 0 0-.204.423c-.001.137.079.259.24.366.16.108.391.225.682.355.224.101.453.211.683.323.23.112.436.246.618.4.182.154.329.332.442.533.112.2.169.435.169.7a2.32 2.32 0 0 1-.217 1.013c-.145.3-.342.553-.595.762a2.65 2.65 0 0 1-.91.48c-.353.11-.739.165-1.157.163-.261 0-.535-.027-.823-.08zM204.48 58.545c.79 0 1.185-.001 1.975-.003-.742 2.753-1.116 4.13-1.866 6.882h-1.986c.754-2.752 1.13-4.127 1.877-6.88zm.633-2.492c.83 0 1.245-.002 2.075-.004l-.475 1.734c-.831.003-1.247.003-2.078.004l.478-1.734zM207.671 65.148a1.226 1.226 0 0 1-.445-.964 2.675 2.675 0 0 1 .03-.424c.021-.138.053-.284.096-.439.336-1.251.503-1.878.837-3.13l-.833.003.451-1.656c.332 0 .498-.002.831-.004l.473-1.76c.789-.003 1.184-.006 1.972-.01l-.47 1.76 1.638-.009-.445 1.659-1.639.009-.767 2.903a.944.944 0 0 0-.051.31c.001.274.18.41.537.408.156 0 .324-.02.502-.06.178-.039.35-.093.514-.163l-.448 1.659c-.408.19-.886.287-1.435.289-.601.002-1.051-.125-1.348-.381zM214.445 65.295a3.079 3.079 0 0 1-1.063-.653 2.883 2.883 0 0 1-.68-1.002 3.393 3.393 0 0 1-.243-1.276 3.691 3.691 0 0 1 .302-1.491c.205-.48.488-.906.849-1.277.361-.37.786-.67 1.273-.896a3.779 3.779 0 0 1 1.575-.35 3.88 3.88 0 0 1 1.4.223c.413.154.766.37 1.06.649.294.279.522.612.683 1 .161.387.245.811.251 1.273a3.635 3.635 0 0 1-.301 1.493 4.209 4.209 0 0 1-2.128 2.182 3.766 3.766 0 0 1-1.571.35 3.897 3.897 0 0 1-1.407-.225zm2.308-1.66a2.27 2.27 0 0 0 .627-.556c.172-.221.303-.466.396-.734a2.28 2.28 0 0 0 .135-.777c-.006-.508-.149-.897-.43-1.165s-.646-.4-1.097-.396c-.304.003-.578.08-.824.228a2.294 2.294 0 0 0-.626.555 2.528 2.528 0 0 0-.397.74 2.323 2.323 0 0 0-.137.77c.005.509.147.897.428 1.167.28.268.647.4 1.1.396a1.6 1.6 0 0 0 .825-.228zM222.177 58.408l1.975-.03-.355 1.392c.348-.519.728-.917 1.144-1.193.416-.277.91-.398 1.482-.366-.208.82-.314 1.23-.523 2.05l-.104.003c-.659.011-1.229.217-1.709.619-.479.401-.834 1.053-1.063 1.955-.252.98-.376 1.47-.629 2.449l-1.986.027a2171.89 2171.89 0 0 0 1.768-6.906zM227.935 65.27a4.77 4.77 0 0 1-1.645-.587 3.523 3.523 0 0 1-.701-.54l1.127-1.188c.372.353.746.59 1.122.71.377.122.722.18 1.035.174.261-.005.464-.061.61-.167a.511.511 0 0 0 .213-.453c-.003-.129-.08-.24-.23-.336a3.393 3.393 0 0 0-.592-.29 10.57 10.57 0 0 1-.789-.337 3.559 3.559 0 0 1-.653-.405 1.795 1.795 0 0 1-.453-.524 1.493 1.493 0 0 1-.175-.71 2.345 2.345 0 0 1 .178-.96c.125-.297.303-.555.538-.773.234-.219.524-.394.868-.524.343-.13.732-.2 1.166-.21.285-.005.56.017.825.067a4.707 4.707 0 0 1 1.415.509c.198.11.371.228.522.353l-1.04 1.256c-.344-.258-.665-.439-.961-.544a2.47 2.47 0 0 0-.875-.15c-.243.006-.43.061-.563.166a.503.503 0 0 0-.193.428c.003.137.085.257.248.36.162.105.396.217.69.34.227.096.458.2.691.307.232.106.441.235.626.385.186.15.339.323.456.522.117.198.178.431.184.697.008.376-.056.716-.193 1.018-.137.303-.33.561-.578.776a2.64 2.64 0 0 1-.897.5 3.82 3.82 0 0 1-1.153.19 4.676 4.676 0 0 1-.823-.06zM231.683 66.386c.54-.054.938-.194 1.194-.418.257-.224.415-.521.476-.89l-.81.018.514-2.066c.845-.02 1.269-.029 2.114-.05l-.428 1.744c-.206.852-.548 1.468-1.028 1.847-.479.38-1.108.587-1.883.621l-.149-.806zM242.869 55.83c.799-.024 1.198-.037 1.997-.063-.684 2.899-1.029 4.348-1.723 7.246 1.82-.056 2.731-.086 4.551-.149l-.434 1.813c-2.627.09-3.941.132-6.568.208.729-3.017 1.455-6.036 2.177-9.055zM250.375 57.682l1.974-.074c-.643 2.779-.966 4.168-1.616 6.946l-1.985.072c.655-2.778.981-4.166 1.627-6.944zm.544-2.512c.829-.031 1.244-.047 2.073-.08l-.412 1.75-2.076.08.415-1.75zM254.206 57.535c.789-.032 1.184-.047 1.973-.08l-.166.72c.242-.231.516-.439.82-.622a2.17 2.17 0 0 1 1.041-.298c.623-.027 1.129.128 1.517.466.387.339.595.821.623 1.445.008.196-.006.41-.044.638-.038.228-.082.455-.132.68-.336 1.495-.505 2.243-.843 3.737l-1.984.085c.35-1.53.524-2.294.87-3.823.022-.095.04-.202.052-.319.013-.116.017-.217.013-.303-.011-.274-.105-.48-.281-.619-.174-.138-.413-.202-.717-.189-.39.017-.705.157-.946.42s-.41.603-.506 1.019c-.358 1.565-.539 2.347-.9 3.912-.793.032-1.19.048-1.984.078.641-2.778.96-4.168 1.594-6.947zM262.813 54.67l1.969-.095c-.435 1.964-.653 2.946-1.092 4.91a875.855 875.855 0 0 0 2.705-2.495l2.57-.13c-1.29 1.141-1.936 1.71-3.231 2.848.69 1.647 1.037 2.47 1.731 4.116-.887.045-1.331.067-2.219.11l-1.129-2.862-.965.841-.476 2.143-1.984.09c.712-3.157 1.423-6.316 2.121-9.477zM271.181 61.853c.265.23.657.33 1.179.303.261-.014.51-.07.749-.169s.496-.255.771-.467l.98 1.154a4.27 4.27 0 0 1-1.093.71c-.43.2-.945.316-1.545.348a4.05 4.05 0 0 1-1.368-.14 2.86 2.86 0 0 1-1.049-.549 2.58 2.58 0 0 1-.688-.922 3.516 3.516 0 0 1-.287-1.27 4 4 0 0 1 .217-1.496c.17-.501.427-.956.77-1.363a4.278 4.278 0 0 1 1.255-1.011 3.939 3.939 0 0 1 1.675-.45c.449-.025.855.021 1.218.139.362.117.671.288.927.513.255.226.456.498.6.815.143.317.226.669.247 1.053.015.248-.001.505-.046.773a4.824 4.824 0 0 1-.215.81c-1.911.108-2.867.161-4.779.262.056.408.217.726.482.957zm2.654-2.348c.035-.148.049-.3.04-.453a1.036 1.036 0 0 0-.306-.703c-.188-.187-.486-.269-.893-.246-.451.024-.84.18-1.168.467a2.391 2.391 0 0 0-.703 1.098c1.212-.064 1.818-.096 3.03-.163zM278.505 63.153a2.466 2.466 0 0 1-.888-.527 2.601 2.601 0 0 1-.621-.896 3.606 3.606 0 0 1-.274-1.232 4.3 4.3 0 0 1 1.017-3.074 3.932 3.932 0 0 1 1.175-.937 3.473 3.473 0 0 1 1.409-.393c.544-.033.994.043 1.349.23.354.184.654.442.9.773.287-1.421.43-2.132.715-3.553l1.967-.125c-.64 3.172-1.286 6.343-1.939 9.513-.793.05-1.19.073-1.983.122l.163-.763a4.177 4.177 0 0 1-.88.702 2.31 2.31 0 0 1-1.036.295 2.788 2.788 0 0 1-1.074-.135zm2.573-1.8c.249-.138.464-.322.646-.55a2.518 2.518 0 0 0 .541-1.713c-.027-.433-.187-.774-.48-1.024-.294-.25-.662-.362-1.103-.335a1.768 1.768 0 0 0-.762.224 2.08 2.08 0 0 0-.626.543 2.624 2.624 0 0 0-.417.791c-.099.3-.139.62-.119.959.027.45.18.792.459 1.026.28.235.641.339 1.084.312.269-.016.528-.093.777-.232zM287.26 53.673c.798-.052 1.197-.08 1.994-.133-.611 3.043-1.226 6.086-1.845 9.128-.803.053-1.205.08-2.009.13.625-3.04 1.245-6.082 1.86-9.125zM290.887 55.539l1.97-.138-.144.724c.235-.237.503-.453.802-.644a2.169 2.169 0 0 1 1.032-.329c.622-.044 1.132.096 1.529.423.397.327.62.802.665 1.425.015.197.007.41-.024.64-.031.23-.07.456-.114.683-.292 1.504-.439 2.256-.734 3.76-.792.058-1.188.086-1.981.142.306-1.538.457-2.308.76-3.846a2.732 2.732 0 0 0 .046-.623c-.019-.274-.118-.477-.298-.61-.179-.133-.419-.19-.722-.168-.39.028-.701.176-.934.446-.234.27-.393.615-.477 1.034-.313 1.575-.47 2.361-.786 3.936-.792.055-1.189.082-1.982.135.561-2.796.839-4.194 1.392-6.99zM304.936 61.272a3.993 3.993 0 0 1-1.417-.675 3.492 3.492 0 0 1-.983-1.158 3.977 3.977 0 0 1-.441-1.595 4.955 4.955 0 0 1 .273-2.075 5.61 5.61 0 0 1 2.689-3.116 5.397 5.397 0 0 1 2.119-.61c.871-.071 1.616.038 2.235.33a4.034 4.034 0 0 1 1.547 1.274c-.619.51-.928.767-1.549 1.277a3.483 3.483 0 0 0-.982-.82c-.355-.194-.804-.269-1.348-.224a2.767 2.767 0 0 0-1.176.372 3.511 3.511 0 0 0-1.589 1.983 3.454 3.454 0 0 0-.16 1.37c.026.325.103.616.232.871.129.256.301.472.516.648.215.175.461.304.738.385.277.08.58.108.91.081.442-.036.817-.146 1.125-.33.308-.184.62-.426.935-.727l1.412 1.222a5.953 5.953 0 0 1-1.403 1.108c-.526.301-1.171.483-1.936.545a5.212 5.212 0 0 1-1.747-.136zM313.469 60.6a3.076 3.076 0 0 1-1.111-.567 2.876 2.876 0 0 1-.755-.947 3.386 3.386 0 0 1-.342-1.252 3.69 3.69 0 0 1 .185-1.51 4.13 4.13 0 0 1 .749-1.34 4.269 4.269 0 0 1 1.2-.992c.469-.264.983-.42 1.544-.47.518-.046.99-.008 1.414.113.424.12.792.309 1.107.564.315.255.568.57.759.944a3.4 3.4 0 0 1 .349 1.25 3.631 3.631 0 0 1-.185 1.512 4.21 4.21 0 0 1-1.953 2.34 3.78 3.78 0 0 1-1.541.472 3.917 3.917 0 0 1-1.42-.116zm2.173-1.834c.234-.167.429-.368.583-.602.154-.234.267-.489.339-.764.071-.274.095-.535.073-.784-.045-.506-.218-.883-.519-1.128-.3-.246-.676-.35-1.125-.31a1.59 1.59 0 0 0-.803.292 2.268 2.268 0 0 0-.582.602c-.154.233-.267.49-.339.769a2.31 2.31 0 0 0-.077.778c.044.507.215.883.516 1.129.301.246.678.35 1.129.31a1.59 1.59 0 0 0 .805-.291zM320.647 53.134l1.968-.183-.128.727c.23-.243.492-.464.787-.663a2.17 2.17 0 0 1 1.025-.353c.621-.06 1.134.07 1.539.387.406.317.638.787.698 1.408.019.196.016.41-.009.64-.026.23-.059.459-.098.686l-.645 3.777-1.978.188c.269-1.545.403-2.318.669-3.863.017-.096.028-.203.035-.32a2.004 2.004 0 0 0-.003-.304c-.026-.274-.13-.474-.313-.603-.182-.13-.424-.18-.726-.151-.389.037-.697.193-.924.469-.227.275-.377.623-.452 1.044-.276 1.581-.416 2.372-.695 3.954l-1.978.182c.496-2.809.741-4.213 1.228-7.022zM328.659 52.367l1.967-.197-.123.729a4.61 4.61 0 0 1 .783-.668c.293-.2.633-.32 1.022-.36.62-.063 1.135.062 1.542.377.407.315.644.784.708 1.405.02.196.017.409-.007.64-.024.23-.055.459-.092.686a4723.84 4723.84 0 0 1-.621 3.78l-1.978.202c.259-1.547.388-2.321.645-3.868.016-.097.027-.203.033-.32a1.975 1.975 0 0 0-.005-.304c-.028-.273-.133-.473-.316-.6-.183-.129-.427-.178-.729-.147-.389.039-.695.197-.921.475-.225.276-.373.625-.445 1.046-.266 1.583-.4 2.376-.669 3.959-.791.079-1.186.117-1.977.194.477-2.812.714-4.217 1.183-7.03zM338.201 56.516c.276.216.674.296 1.194.24.26-.028.506-.097.739-.208.233-.111.482-.28.746-.507l1.04 1.1c-.284.29-.636.547-1.055.768-.419.222-.927.364-1.525.428a4.068 4.068 0 0 1-1.375-.067 2.845 2.845 0 0 1-1.077-.492 2.57 2.57 0 0 1-.736-.885 3.476 3.476 0 0 1-.353-1.253 3.985 3.985 0 0 1 .138-1.505 4.19 4.19 0 0 1 .697-1.403 4.271 4.271 0 0 1 1.202-1.075 3.938 3.938 0 0 1 1.649-.539 3.355 3.355 0 0 1 1.224.074c.368.098.686.253.953.465.268.212.482.472.643.781.16.31.261.656.303 1.038.027.247.025.506-.006.776a4.71 4.71 0 0 1-.172.82c-1.904.208-2.856.312-4.761.513.078.405.255.715.532.93zm2.528-2.485c.028-.15.032-.301.016-.454-.03-.28-.145-.51-.343-.686-.198-.176-.5-.243-.905-.2a1.876 1.876 0 0 0-1.141.53 2.399 2.399 0 0 0-.647 1.134c1.208-.128 1.812-.193 3.02-.324zM345.932 57.389a3.041 3.041 0 0 1-1.096-.51 2.819 2.819 0 0 1-.777-.896 3.231 3.231 0 0 1-.38-1.243 3.822 3.822 0 0 1 .156-1.612 4.16 4.16 0 0 1 .745-1.374 4.27 4.27 0 0 1 1.202-1.007 3.993 3.993 0 0 1 1.535-.497 4.016 4.016 0 0 1 1.034.003c.311.046.588.123.832.231.244.109.461.244.65.406.189.162.355.337.5.526l-1.381 1.218a2.553 2.553 0 0 0-.663-.577c-.239-.14-.553-.188-.941-.144-.258.03-.501.122-.728.277a2.121 2.121 0 0 0-.576.59 2.729 2.729 0 0 0-.355.811 2.537 2.537 0 0 0-.066.928c.05.443.218.78.507 1.011.289.231.629.325 1.018.281.303-.034.569-.123.798-.266.229-.142.461-.338.695-.589.462.459.693.688 1.157 1.146a4.862 4.862 0 0 1-1.068.905c-.385.238-.872.39-1.461.457a3.745 3.745 0 0 1-1.337-.075zM351.859 56.508a1.222 1.222 0 0 1-.553-.906c-.017-.145-.023-.288-.017-.426.005-.14.021-.288.046-.446.193-1.281.289-1.923.479-3.204l-.828.097.261-1.698c.33-.04.496-.058.827-.097l.272-1.803 1.961-.233-.269 1.803c.651-.077.976-.117 1.627-.195l-.255 1.699-1.629.195a3037.64 3037.64 0 0 1-.436 2.97.983.983 0 0 0-.016.313c.032.273.226.389.581.347.155-.019.319-.058.492-.118.173-.06.337-.132.493-.22l-.258 1.699c-.385.235-.849.385-1.395.45-.598.07-1.059-.005-1.383-.227zM357.201 49.213l1.963-.24c-.407 2.822-.612 4.235-1.027 7.058l-1.974.239c.419-2.823.627-4.235 1.038-7.057zm.331-2.55c.825-.1 1.237-.151 2.062-.254l-.264 1.78c-.826.102-1.239.153-2.065.253l.267-1.779zM362.533 55.402a3.083 3.083 0 0 1-1.133-.525 2.864 2.864 0 0 1-.792-.916 3.397 3.397 0 0 1-.39-1.239 3.701 3.701 0 0 1 .127-1.517c.149-.5.381-.956.697-1.366.317-.41.704-.757 1.163-1.04a3.788 3.788 0 0 1 1.526-.528 3.884 3.884 0 0 1 1.417.058c.429.105.805.278 1.129.521.325.243.59.547.795.913.205.366.337.778.397 1.236.066.51.024 1.015-.126 1.518-.15.503-.383.96-.698 1.372a4.295 4.295 0 0 1-1.166 1.042c-.461.283-.967.46-1.521.53-.52.067-.995.046-1.425-.06zm2.103-1.917a2.27 2.27 0 0 0 .559-.625 2.543 2.543 0 0 0 .353-1.564c-.065-.504-.252-.873-.563-1.106-.31-.234-.689-.322-1.136-.265a1.597 1.597 0 0 0-.793.322 2.267 2.267 0 0 0-.559.624c-.145.24-.248.5-.309.78a2.295 2.295 0 0 0-.047.782c.063.504.25.873.56 1.108.31.234.69.323 1.14.266.302-.038.567-.146.795-.322zM369.424 47.662l1.962-.26-.1.732a4.64 4.64 0 0 1 .761-.692c.287-.21.624-.341 1.012-.394.618-.083 1.136.025 1.554.327.417.301.668.762.752 1.381.027.196.032.408.016.64-.017.23-.041.461-.072.69-.198 1.519-.299 2.278-.5 3.798-.788.107-1.182.16-1.971.265.209-1.554.314-2.332.521-3.887a2.788 2.788 0 0 0 .008-.624c-.036-.272-.149-.469-.336-.59-.187-.123-.431-.163-.733-.123-.387.052-.689.22-.906.504-.216.284-.353.638-.411 1.061-.216 1.592-.324 2.387-.542 3.978-.788.104-1.182.156-1.971.258.386-2.825.577-4.238.956-7.064zM378.54 53.452a4.81 4.81 0 0 1-1.705-.389 3.525 3.525 0 0 1-.761-.452l.981-1.314c.411.306.811.497 1.2.573a3.2 3.2 0 0 0 1.049.049c.259-.036.455-.115.588-.238a.51.51 0 0 0 .157-.475c-.017-.128-.106-.23-.267-.307a3.447 3.447 0 0 0-.623-.217 10.44 10.44 0 0 1-.825-.242 3.55 3.55 0 0 1-.697-.324 1.788 1.788 0 0 1-.511-.467 1.463 1.463 0 0 1-.259-.684 2.332 2.332 0 0 1 .063-.974 2.23 2.23 0 0 1 .444-.833c.207-.244.475-.452.801-.622.327-.17.705-.286 1.135-.346.284-.04.56-.05.83-.032a4.686 4.686 0 0 1 1.466.337c.21.088.397.184.561.29-.353.548-.53.823-.885 1.37a3.703 3.703 0 0 0-1.021-.426 2.473 2.473 0 0 0-.888-.044c-.241.033-.42.11-.539.23a.501.501 0 0 0-.143.448c.019.135.115.245.289.33.174.083.421.166.728.254.237.068.478.145.722.223.243.078.467.18.669.308.203.127.374.282.514.465.14.183.228.407.265.67.052.372.029.717-.072 1.033a2.23 2.23 0 0 1-.483.84 2.643 2.643 0 0 1-.833.602c-.335.16-.71.268-1.124.326-.259.036-.534.05-.826.038zM28.078 22.771c.743-6.638 7.003-10.9 13.416-10.314 3.514.322 6.815 2.586 7.329 6.284-2.377.788-3.567 1.179-5.95 1.957-.267-1.592-1.33-2.474-2.768-2.597-2.791-.239-4.971 2.108-5.245 4.774-.215 2.086 1 3.398 2.705 3.563 1.485.143 2.764-.45 3.928-1.634a1164.97 1164.97 0 0 0 4.135 3.901c-2.351 2.587-5.841 3.671-9.243 3.34-4.826-.471-8.881-4.143-8.307-9.274zM47.878 24.373c.57-6.1 6.177-10.708 12.245-10.237 4.928.382 9.247 4.206 8.837 9.408-.486 6.162-6.14 10.797-12.243 10.307-4.953-.398-9.328-4.228-8.839-9.478zm14.586-.762c.163-2.02-.943-3.7-3.243-3.891-2.684-.223-4.633 2.247-4.838 4.647-.173 2.019.93 3.708 3.244 3.9 2.698.226 4.644-2.255 4.837-4.656zM73.689 15.581c2.392.177 3.589.263 5.982.43 1.235 3.144 2.48 6.284 3.73 9.422 1.03-2.985 2.053-5.972 3.072-8.96 2.536.166 3.803.247 6.34.403a3782.953 3782.953 0 0 1-6.376 18.798c-2.301-.15-3.451-.226-5.752-.384a2172.042 2172.042 0 0 1-3.912-9.823 3763.24 3763.24 0 0 1-3.276 9.315c-2.566-.188-3.848-.284-6.413-.482 2.217-6.233 4.42-12.473 6.605-18.719zM93.277 16.904c2.81.172 4.215.255 7.025.415.071 3.596.142 7.192.218 10.788 2.419-3.452 4.824-6.914 7.218-10.384 2.876.15 4.314.221 7.191.358a1874.765 1874.765 0 0 1-14.003 18.603c-2.48-.138-3.719-.21-6.198-.357-.491-6.474-.975-12.948-1.45-19.423zM115.505 18.108c5.442.25 10.885.478 16.33.682-.646 2.08-.97 3.12-1.62 5.2-3.358-.127-6.715-.262-10.073-.41l-.607 1.92c3.133.137 6.265.267 9.398.386-.565 1.83-.849 2.746-1.417 4.576a1692.44 1692.44 0 0 1-9.425-.397l-.673 2.053c3.422.154 6.844.298 10.266.432-.645 2.08-.968 3.119-1.616 5.197-5.557-.227-11.112-.476-16.666-.751 2.052-6.29 4.086-12.587 6.103-18.888zM133.914 18.866c2.988.105 4.482.154 7.47.245 2.418.023 5.265.474 7.006 2.251 1.041 1.063 1.435 2.54 1.408 4.035-.057 3.28-2.413 5.818-5.548 6.589.999 2.58 1.499 3.87 2.506 6.449-2.792-.074-4.188-.115-6.98-.201-.796-2.216-1.193-3.325-1.983-5.542-.64-.02-.96-.031-1.6-.053-.669 2.17-1.005 3.254-1.679 5.422-2.592-.09-3.888-.137-6.48-.237a3480.658 3480.658 0 0 0 5.88-18.958zm5.981 9.32c2.147.067 3.304-.887 3.34-2.09a1.402 1.402 0 0 0-.383-1.025c-.346-.366-.972-.577-1.878-.604-.912-.028-1.368-.042-2.279-.072l-1.139 3.716 2.339.075zM147.697 35.365a1425.05 1425.05 0 0 0 3.809-4.285c2.162 1.886 4.41 2.81 6.453 2.851.829.016 1.415-.274 1.426-.822.011-.602-.398-.91-3.137-1.896-2.406-.867-5.27-2.525-5.136-5.51.198-4.427 4.864-6.612 8.781-6.52 3.033.07 6.154.998 8.5 3.01a1199.117 1199.117 0 0 1-3.742 4.326c-1.439-1.2-3.481-2.192-5.512-2.231-.823-.016-1.404.192-1.415.739-.011.575.436.782 3.045 1.728 2.455.89 5.34 2.56 5.283 5.59-.088 4.65-4.804 6.83-8.886 6.717-3.439-.095-6.913-1.312-9.469-3.697zM178.036 19.663c2.541.018 3.811.024 6.351.032.949 6.437 1.908 12.873 2.878 19.306-2.76-.003-4.139-.007-6.9-.023l-.318-2.576c-2.711-.016-4.067-.026-6.778-.053-.685 1.023-1.028 1.534-1.716 2.555-2.826-.031-4.239-.05-7.065-.094 4.555-6.355 9.07-12.737 13.548-19.147zm1.679 12.194l-.495-4.658c-1.211 1.854-1.818 2.78-3.036 4.632 1.412.012 2.119.017 3.531.026zM193.904 25.253c-2.263.007-3.395.008-5.659.007.584-2.168.873-3.252 1.453-5.42 5.896-.009 11.792-.043 17.687-.106-.555 2.174-.834 3.261-1.393 5.436-2.264.024-3.396.034-5.66.05-1.206 4.59-2.422 9.178-3.643 13.765-2.594.012-3.892.016-6.486.017 1.241-4.58 2.475-9.164 3.701-13.75zM208.836 19.716c2.563-.031 3.844-.05 6.407-.093a3859.944 3859.944 0 0 1-4.891 19.238c-2.594.035-3.891.05-6.485.073a3629.238 3629.238 0 0 0 4.969-19.217zM214.403 30.506c-.075-6.123 5.014-11.297 11.098-11.47 4.943-.14 9.636 3.21 9.777 8.424.167 6.178-4.971 11.384-11.09 11.54-4.967.126-9.72-3.224-9.785-8.494zm14.422-2.295c-.051-2.025-1.327-3.58-3.634-3.528-2.692.062-4.369 2.723-4.321 5.132.04 2.025 1.315 3.589 3.635 3.537 2.707-.06 4.38-2.733 4.32-5.14zM239.143 19.043c2.398-.076 3.596-.117 5.994-.202 1.559 2.995 3.127 5.987 4.702 8.975.71-3.077 1.412-6.155 2.113-9.234 2.54-.102 3.809-.155 6.348-.267a3663.245 3663.245 0 0 1-4.364 19.366c-2.305.094-3.457.14-5.762.225a2052.04 2052.04 0 0 1-4.925-9.358c-.753 3.205-1.515 6.407-2.278 9.61a1289 1289 0 0 1-6.428.195c1.55-6.432 3.084-12.869 4.6-19.31zM255.884 34.504c1.409-1.813 2.111-2.72 3.511-4.536 2.286 1.735 4.593 2.503 6.636 2.404.828-.04 1.394-.37 1.367-.917-.029-.601-.458-.878-3.26-1.677-2.461-.701-5.432-2.159-5.503-5.147-.104-4.431 4.409-6.928 8.322-7.105 3.034-.137 6.211.577 8.691 2.423-1.373 1.83-2.061 2.745-3.441 4.572-1.518-1.099-3.625-1.95-5.655-1.85-.824.04-1.39.287-1.364.834.028.575.49.75 3.159 1.516 2.509.72 5.505 2.19 5.654 5.216.228 4.647-4.331 7.143-8.413 7.309-3.439.14-6.991-.835-9.704-3.042z" fill="#000"/></svg>