<svg width="254" height="65" viewBox="0 0 254 65" fill="none" xmlns="http://www.w3.org/2000/svg"><path d="M220.617 55.838s-40.102 8.42-96.633 8.42c-53.081 0-90.215-8.399-90.215-8.399L.721.746C5.468 5.828 60.26 9.837 127.15 9.837c69.115 0 125.315-4.278 126.74-9.602.075-.003-33.274 55.603-33.274 55.603z" fill="#00AF52"/><path d="M252.906 1.22c-3.055 5.246-32.672 55.11-32.672 55.11s-12.488 2.649-33.33 4.972l26.333-53.58c22.625-1.645 37.448-3.937 39.669-6.502z" fill="#38C178"/><path d="M38.673 30.952a11.198 11.198 0 0 1-4.492.695c-5.131-.265-9.567-4.194-9.207-9.566.418-6.232 5.885-11.307 12.163-10.99 5.105.257 9.498 4.186 9.203 9.492-.162 2.897-1.445 5.63-3.5 7.68l1.33 2.03c-1.74 1.03-2.612 1.542-4.36 2.567l-1.137-1.908zm-3.442-4.882c-.662-1.015-.992-1.525-1.65-2.541 1.74-1.018 2.61-1.527 4.345-2.549l1.282 2.174a6.104 6.104 0 0 0 .539-2.192c.119-2.213-1.079-3.96-3.382-4.051-2.773-.11-4.688 2.48-4.853 5.078-.14 2.203 1.03 3.932 3.382 4.062l.337.019zM47.094 25.142c.061-1.01.244-2.122.576-3.188 1.035-3.26 2.064-6.521 3.087-9.785 2.64.12 3.961.177 6.602.286-1.053 3.408-2.11 6.815-3.174 10.22-.165.561-.273 1.096-.293 1.55-.072 1.647.842 2.54 2.579 2.612.812.034 1.58-.22 2.134-.738.613-.573 1.036-1.324 1.516-2.84 1.083-3.522 2.16-7.045 3.23-10.57 2.641.098 3.961.144 6.603.23-1.161 3.867-2.327 7.732-3.498 11.596-.793 2.617-1.876 4.564-3.302 5.854-2.273 2.057-5.025 2.266-7.889 2.306-4.275.06-8.459-2.736-8.17-7.533zM78.17 13.023c2.575.07 3.862.102 6.437.161.825 6.7 1.66 13.397 2.509 20.094-2.802-.06-4.202-.092-7.003-.163l-.267-2.68c-2.752-.07-4.127-.11-6.878-.193l-1.8 2.617c-2.868-.09-4.302-.14-7.17-.243 4.767-6.5 9.49-13.03 14.172-19.593zm1.437 12.687l-.4-4.842c-1.269 1.899-1.905 2.848-3.182 4.745 1.433.04 2.149.06 3.582.097zM93.234 13.5c2.598.045 3.896.065 6.494.099-1.305 4.72-2.62 9.438-3.944 14.153 2.98.043 5.959.08 8.939.112-.628 2.268-.943 3.4-1.575 5.668-5.186-.061-10.371-.142-15.556-.244 1.901-6.59 3.78-13.187 5.642-19.788zM110.192 13.698c2.598.016 3.896.021 6.495.026a3493.48 3493.48 0 0 1-5.326 19.873c-2.633-.014-3.95-.024-6.583-.05a3579.22 3579.22 0 0 0 5.414-19.849zM118.852 13.726c5.422-.003 10.844-.03 16.266-.081-.575 2.28-.865 3.419-1.445 5.698-3.269.03-6.538.051-9.808.06l-.662 2.53c3.042-.01 6.085-.027 9.127-.05-.529 2.074-.795 3.11-1.328 5.183-3.053.02-6.106.034-9.159.042-.679 2.604-1.02 3.906-1.705 6.51-2.633 0-3.95-.002-6.583-.012 1.785-6.621 3.55-13.248 5.297-19.88zM136.698 13.628c2.598-.03 3.897-.047 6.495-.088a3429.157 3429.157 0 0 1-4.967 19.963c-2.633.032-3.95.045-6.583.066 1.704-6.642 3.39-13.289 5.055-19.941zM145.358 13.505c5.523-.1 11.046-.226 16.568-.375-.514 2.198-.772 3.296-1.291 5.493-3.407.093-6.815.173-10.223.243l-.487 2.028c3.18-.063 6.36-.138 9.54-.22-.451 1.933-.677 2.899-1.131 4.832-3.189.082-6.379.153-9.569.214l-.546 2.17c3.475-.065 6.95-.141 10.425-.231a2660.94 2660.94 0 0 1-1.291 5.49c-5.644.133-11.288.242-16.933.325a3590.194 3590.194 0 0 0 4.938-19.97zM164.033 13.07c2.753-.081 4.129-.125 6.881-.219 2.701-.147 5.678.386 7.705 2.277 1.503 1.403 2.252 3.325 2.354 5.736a11.08 11.08 0 0 1-2.899 7.964c-2.588 2.818-6.441 3.946-10.176 4.024-2.85.09-5.7.172-8.55.247a3527.62 3527.62 0 0 0 4.685-20.029zm4.405 13.966c1.989-.064 3.677-.72 4.648-1.778.781-.852 1.318-2.208 1.273-3.43-.04-1.078-.374-1.777-.894-2.27-.636-.604-1.624-.938-3.184-.886l-1.087.036c-.631 2.789-1.265 5.577-1.904 8.363.459-.014.689-.02 1.148-.035zM120.507 38.657c2.642-.001 3.963-.005 6.605-.018a3689.047 3689.047 0 0 1-3.745 14.222c3.03-.01 6.06-.027 9.09-.05-.596 2.28-.895 3.417-1.496 5.695-5.272.04-10.545.053-15.817.037a3505.527 3505.527 0 0 0 5.363-19.886zM137.696 38.55c5.618-.074 11.234-.171 16.851-.293-.536 2.196-.806 3.293-1.346 5.488-3.465.076-6.931.14-10.396.192l-.507 2.026c3.234-.049 6.467-.107 9.701-.175-.469 1.932-.704 2.898-1.176 4.828-3.245.065-6.489.122-9.733.166l-.567 2.168c3.534-.047 7.067-.107 10.6-.18-.535 2.195-.804 3.291-1.343 5.484-5.74.106-11.479.187-17.219.24a3520.255 3520.255 0 0 0 5.135-19.944zM163.487 37.885c2.618-.075 3.927-.116 6.545-.202a6114.78 6114.78 0 0 0 3.708 19.92c-2.847.099-4.271.146-7.119.232l-.426-2.66c-2.797.085-4.196.124-6.993.195-.668 1.086-1.003 1.629-1.674 2.714-2.916.071-4.376.104-7.293.161 4.463-6.758 8.88-13.544 13.252-20.36zm2.194 12.586c-.276-1.925-.414-2.887-.688-4.812-1.178 1.968-1.769 2.95-2.955 4.917 1.457-.04 2.186-.061 3.643-.105zM178.811 37.512c2.799-.108 4.197-.166 6.996-.287 2.738-.173 5.767.324 7.855 2.202 1.541 1.386 2.32 3.301 2.443 5.713a10.986 10.986 0 0 1-2.878 7.993c-2.623 2.858-6.531 4.009-10.311 4.123-2.897.116-5.794.225-8.691.33a3731.62 3731.62 0 0 0 4.586-20.074zm4.603 13.922c2.022-.084 3.732-.755 4.709-1.823.788-.86 1.323-2.22 1.266-3.441-.05-1.079-.396-1.774-.929-2.262-.653-.597-1.66-.923-3.246-.855l-1.104.047c-.617 2.794-1.238 5.589-1.863 8.382l1.167-.048z" fill="#000"/><path d="M194.645 53.52c1.438-1.89 2.154-2.837 3.583-4.73 2.374 1.785 4.761 2.568 6.868 2.452.855-.047 1.435-.393 1.402-.96-.036-.625-.48-.91-3.378-1.72-2.555-.715-5.624-2.217-5.721-5.308-.143-4.575 4.465-7.217 8.519-7.427 3.131-.162 6.415.563 8.983 2.458a1194.733 1194.733 0 0 1-3.506 4.769c-1.576-1.13-3.755-2-5.849-1.884-.848.048-1.429.307-1.398.874.034.596.511.776 3.272 1.554 2.606.735 5.698 2.246 5.879 5.376.277 4.8-4.382 7.444-8.615 7.641-3.556.166-7.223-.826-10.039-3.095z" fill="#000"/></svg>