<svg width="1920" height="1346" viewBox="0 0 1920 1346" fill="none" xmlns="http://www.w3.org/2000/svg"><path d="M1556.23 1345.2V76.027s.19-1.844-1.63-4.61c-1.87-2.85-6.39-2.482-6.39-2.482H-.775V.022H1602.99s10.38.481 15.27 6.144c4.51 5.233 4.22 14.135 4.22 14.135V1345.2h-66.25z" fill="#F9A431"/><path d="M1622.49 21.69h297.78v69.048h-267.99c-6.78 0-8.9 2.536-8.9 7.876V1345.2h-20.89V21.69z" fill="#005698"/><path d="M1622.49 1345.2h8.86V43.378c0-13.965-8.86-16.762-8.86-16.762V1345.2z" fill="#00457A"/><path d="M1809.67 287.628c-.1.331-.43.659-.99.985l.99-.985z" fill="#1561BD"/><path d="M1769.28 368.394c-.11.328-.44.661-.99.985l.99-.985z" fill="#CC6212"/><path d="M1348.64 199.967l.99.985c-.43-.326-.76-.655-.99-.985z" fill="#D7B023"/><path d="M1516.11 528.941l.98.985c-.61-.326-.94-.653-.98-.985zM1688.5 528.941c0 .335-.33.665-.98.985l.98-.985z" fill="#A82224"/><path d="M1621.85 169.065c.8-.806-.34-1.41-.34-1.41l-7.51.671v-9.398l-9.72-5.707s-1.81-3.155-5.23-5.169c-2.61-1.539-7.38-2.081-7.38-2.081l-.94-.604-1 .604s-3.09.067-6.38 2.014c-3.28 1.947-4.49 4.296-4.49 4.296l-11.47 6.647.09 2.127-8.07-1.042s-.29.077-.29.615c0 .617.25.717.25.717l8.13.402v7.581l-6.17 1.047s-.7.255-.7.881c0 .696.93.629.93.629l5.92-1.579v11.09c-1.32 1.321.07 1.499.07 1.499v3.78l23.09 13.451 23.39-13.346v-3.072l.31.261s.83.373 1.07-.084c.34-.631-.27-1.101-.27-1.101l-1.14-.829v-12.89h7.85zm-8.5-.626v.61h-4.47l4.47-.61zm-35.52-13.384c1.35-3.603 6.02-7.862 12.72-8.327.2-.013.4-.024.61-.029.2.005.4.016.6.029 6.71.465 11.38 4.724 12.72 8.327 3.45 9.278-1.21 12.882-3.69 18.003-1.65 3.419-1.94 5.763-1.94 5.763h-13.17v.134s0-.046-.01-.134h-2.2s-.3-2.344-1.95-5.763c-2.47-5.121-7.14-8.725-3.69-18.003zm6.28 28.755s.04-.682-.26-1.678l14.93 2.709s-.54 1.185-.54 1.877c0 .379.43.905.57 1.311a.696.696 0 0 1-.03.593l-15.07-2.685s-.2-.185-.19-.381c0-.1.33-.411.46-.787.16-.449.13-.959.13-.959zm-.64-2.347c-1.17-.695-.14-2.105-.14-2.105h15.47s.81.964.87 2.406c.07 1.445-.67 2.406-.67 2.406l-15.53-2.707zm-.32 12.608l-15.09-8.76v-2.551l9.69-7.685-9.69 5.908v-11.01l5.47-1.512-5.47.805v-7.564l4.14.158-4.14-.851v-1.746s2.1-1.431 2.55-1.375l5.13 3.926s.1 1.673 1.41 4.764c.69 1.628 3.07 5.293 4.4 8.145 1.2 2.559 1.4 4.143 1.4 4.143s-.94 1.05-.71 1.923c.12.484.77 1.058 1.09 1.48.26.341.2.58.2.58s.04 1.09-.27 1.982c-.3.829-.94 1.418-1.28 2.661 0 0-.37 1.646.7 3.024 1.08 1.374.47 3.555.47 3.555zm15 .191c-.53.359-2.41 1.455-2.41 1.455h-10.1l-2.02-1.364v-.36s.25-.693.27-1.23c.02-.537-.27-1.297-.27-1.297s-.09-.336 0-.515l15.05 2.774s.02.179-.52.537zm.79-1.053l-15.61-2.863s-1.49-2.239-.15-3.872l15.76 2.908s.53.696.53 1.3c0 2.124-.53 2.527-.53 2.527zm10.21-5.234l-9.41 5.347s1.59-1.297-.78-6.287c0 0-.13-.292 0-.65.13-.357 1.52-3.088 1.16-5.123l.09-.516 8.94 6.802v.427zm4.26-4.611l-11.9-8.289 11.9 6.477v1.812z" fill="#FDE4C2"/><path d="M1585.68 178.821h-.01c-.04-.859-.32-5.653-.82-8.564-.73-4.304-1.9-10.859-1.9-10.859s1.81 3.268 2.63 11.458c.23 2.275.12 7.103.1 7.965zM1595.02 168.856c-.26 3.488-.07 9.409-.07 9.409s-.64-5.996-.6-8.706c.11-8.862 1.63-12.516 1.63-12.516s-.59 7.132-.96 11.813z" fill="#FDE4C2"/><path d="M1598.6 157.067s-1.48-.562-3.85-.79c-.25-1.351-.88-2.734-1.92-2.734-.05 0-.12.006-.17.017-.16.024-.36.091-.56.263-.33-.395-.72-.642-1.16-.642-.09 0-.17.008-.25.027-.21.045-.53.182-.78.566-.36-.566-.81-.982-1.37-.982-.08 0-.16.008-.23.024-.47.102-.79.448-.96 1.036a1.289 1.289 0 0 0-.69-.207c-.08 0-.16.009-.24.027-.33.07-.9.355-1.09 1.418-.24-.188-.51-.303-.81-.303-.1 0-.21.016-.3.043-.33.094-.89.424-.95 1.568-.03.54.06 1.2.25 1.866-2.35 1.12-3.55 2.275-3.68 2.417.15-.11 1.48-1.047 3.81-1.982.28.822.94 2.323 2.03 2.323.1 0 .21-.013.31-.043.21-.062.53-.228.74-.663.28.271.61.435.97.435.08 0 .16-.008.24-.024.18-.041.43-.14.65-.387.34.51.77.873 1.29.873.08 0 .16-.008.23-.024.52-.113.86-.524 1.02-1.228.25.207.53.325.84.325.08 0 .16-.008.25-.024.2-.046.5-.172.74-.524h.01c.17.094.36.148.56.148.06 0 .12-.005.18-.016.33-.054.93-.317 1.12-1.447a6.19 6.19 0 0 0 0-1.668c1.19.027 2.45.126 3.77.312zm-6.29-.884h-.01c-.01-.029-.01-.059-.01-.086.01.03.02.057.02.086zm-1.91-1.436c.08-.425.24-.704.46-.752a.362.362 0 0 1 .08-.008c.22 0 .47.212.71.572a1.86 1.86 0 0 0-.11.448c-.06.357-.08.771-.05 1.209-.2.01-.4.026-.61.045-.1-.408-.26-.964-.48-1.512v-.002zm-5.96.856c.03-.005.05-.01.08-.01.23 0 .5.247.75.655.02.387.08.803.16 1.222-.41.147-.81.3-1.17.459-.3-1.184-.23-2.208.18-2.326zm1.32 4.603a.236.236 0 0 1-.08.01c-.39 0-.93-.754-1.28-1.804.37-.134.75-.266 1.16-.392.14.513.32 1.018.56 1.453-.04.402-.16.674-.36.733zm.31-4.194c-.01-.857.17-1.477.52-1.553a.434.434 0 0 1 .08-.008c.17 0 .35.124.53.341-.02.605.03 1.327.16 2.084-.28.073-.55.148-.81.226a6.58 6.58 0 0 0-.48-1.09zm1.7 3.928a.551.551 0 0 1-.07.006c-.24 0-.51-.248-.77-.664a5.91 5.91 0 0 0-.21-1.595c.25-.067.51-.129.77-.19.1.461.31 1.283.65 2.038-.09.228-.21.37-.37.405zm.26-5.387c.06-.545.21-.899.45-.95a.407.407 0 0 1 .06-.006c.31 0 .69.486 1.03 1.254v.003c-.06.457-.04.996.03 1.56-.24.035-.49.078-.75.129-.18-.722-.46-1.447-.82-1.99zm1.91 5.849a.405.405 0 0 1-.06.005c-.26 0-.58-.354-.88-.939v-.003c.03-.116.05-.239.07-.376.07-.545.03-1.211-.08-1.901.23-.041.48-.081.73-.118v.037c.15.688.38 1.391.7 1.963v.003c-.02.754-.18 1.267-.48 1.329zm2.1-.929a.27.27 0 0 1-.07.008c-.23 0-.5-.231-.74-.626v-.003c-.01-.585-.08-1.256-.21-1.949.18-.019.36-.035.54-.051.01.043.01.088.02.131.13.795.39 1.62.79 2.186-.08.169-.19.274-.33.304zm.33-2.624v-.054c.02-.002.05-.002.08-.002.06.298.09.585.11.856a5.938 5.938 0 0 1-.19-.8zm.18-2.331c.07-.094.15-.15.24-.166.01-.003.03-.003.04-.003.4 0 .85.787 1.09 1.861-.25-.013-.51-.024-.78-.027a6.903 6.903 0 0 0-.59-1.665zm1.03 4.56c-.02.003-.04.003-.05.003a.424.424 0 0 1-.25-.097c.02-.11.04-.231.06-.36.06-.539.03-1.192-.08-1.869.25-.005.5-.01.75-.01.18 1.232-.01 2.261-.43 2.333zM1590.86 129.826c0 .03-.01.057-.01.086l-.7 12.6-.7-12.6v-.086c0-.389.31-.706.7-.706.39 0 .71.317.71.706zM1609.64 136.094c-.02.024-.04.043-.05.065l-8.07 9.699 6.94-10.532c.02-.027.03-.048.05-.072a.7.7 0 0 1 .98-.148c.32.231.38.677.15.988zM1619.97 151.049c-.02.011-.05.016-.08.024l-12.11 3.507 11.65-4.828c.02-.014.05-.024.07-.032.37-.129.77.064.9.429a.702.702 0 0 1-.43.9zM1578.81 147.432l-8-9.759c-.02-.024-.03-.043-.05-.067a.708.708 0 0 1 .15-.985.711.711 0 0 1 .99.153c.01.024.03.048.04.072l6.87 10.586zM1572.57 152.789l-11.97-3.972-.08-.024a.714.714 0 0 1-.4-.916.7.7 0 0 1 .91-.397c.03.011.06.022.08.038l11.46 5.271zM1577.54 34.462l-1.89-1.75c.01.203.01.405.01.609 0 12.326-10.02 22.356-22.33 22.356-12.31 0-22.33-10.03-22.33-22.356 0-12.326 10.02-22.355 22.33-22.355 7.36 0 13.9 3.584 17.97 9.103v-2.927l2.64-1.53c-4.98-5.804-12.37-9.48-20.61-9.48-15 0-27.16 12.173-27.16 27.189 0 15.017 12.16 27.19 27.16 27.19 14.81 0 26.86-11.875 27.15-26.64l-2.94.591z" fill="#FDE4C2"/><path d="M1569.54 32.32l-4.79 1.423c-.18 6.152-5.23 11.104-11.42 11.104-6.3 0-11.42-5.132-11.42-11.437s5.12-11.434 11.42-11.434c3.41 0 6.48 1.509 8.58 3.893l4.65-1.909c-2.95-4.127-7.78-6.818-13.23-6.818-8.98 0-16.25 7.282-16.25 16.268 0 8.985 7.27 16.27 16.25 16.27 8.97 0 16.25-7.285 16.25-16.27 0-.365-.01-.73-.04-1.09z" fill="#FDE4C2"/><path d="M1558.38 35.636a5.504 5.504 0 0 1-5.05 3.303 5.524 5.524 0 0 1-5.52-5.53c0-3.05 2.47-5.526 5.52-5.526.88 0 1.72.207 2.45.578l-3.21 1.37s-2.62 1.135-1.71 4.094c.94 3.038 4.01 2.753 4.01 2.753l3.51-1.042z" fill="#FDE4C2"/><path d="M1584.47 12.622l-1.52 9.22-9.45 4.01s-.23.157-.14.342c.1.222.34.162.34.162l9.67-2.837 7.25 6.344-12.58 2.585-2.85-3.713-20.35 6.063s-1.61.29-2.13-1.197c-.61-1.78.92-2.462.92-2.462l19.65-7.72-.07-5.103 11.26-5.694z" fill="#FDE4C2"/><path d="M1583.74 22.043l6.88-.773-6.31 1.981-.57-1.209zM1332.39 43.126c-.87-2.272-5.99-16.167-5.99-16.167.79-.802 1.73-2.004 1.33-3.006-.4-1.002-3.46-9.153-3.46-9.153-.87-1.737-2.87-2.204-5.19-1.47-2.33.736-11.12 4.21-11.12 4.21s-.64-2.267-1.59-3.878c-.47-.783-1.21-1.472-1.6-1.801-1.2-1.002-4.13-1.27-6.13-.735-1.99.535-3.79 1.07-6.32 2.405-2.53 1.336-4.66 4.543-3.66 7.148 1 2.606 1.33 3.14 1.33 3.14s-9.91 3.808-11.71 4.476c-1.8.668-3.13 2.94-2.26 5.344.86 2.405 2.73 7.148 3.06 8.084.33.935.66 1.135 1.4 1.269.73.134 1.33.2 1.33.2s5.45 15.098 6.12 16.702c.66 1.603 1.53 2.605 3.39 2.004 1.87-.602 38.14-13.963 39.93-14.764 1.8-.802 2-1.737 1.14-4.008zm-39.8-26.255c.87-.665 6.65-2.872 8.12-3.206 1.46-.334 2.93.4 3.32 1.403.4 1.002 1.2 3.206 1.2 3.206l-12.64 4.743s-.67-1.736-1.07-3.34c-.4-1.603-.18-1.854 1.07-2.806zm-11.12 22.981s-2.06-5.611-2.53-6.747c-.46-1.136-.46-1.603.94-2.271 1.39-.668 38.73-14.23 39.99-14.697 1.27-.468 1.6-.735 2.27 1.002.66 1.736 2.46 6.814 2.46 6.814s-1.73 2.405-5.78 5.822c-3.86 3.252-8.46 6.002-8.46 6.002l-.6-1.937c-.15-.487-1.27-1.67-2.66-1.203-1.4.468-6.59 2.539-6.59 2.539-1.27.534-1.73 1.336-1.33 2.672.4 1.336.53 1.737.53 1.737s-4.53.935-9.12.935c-2.53 0-9.12-.668-9.12-.668zm27.59.334l-5.03 2.138-2.02-5.144 5.09-2.004 1.96 5.01zm-18.27 18.906l-5.86-15.833s11.72.601 15.78-.868c0 0 .46 1.002.8 1.536.33.535.86 1.336 2.52.735 0 0 5.53-1.937 6.59-2.338 1.07-.4 1.67-1.403 1.4-2.271-.27-.869-.53-1.47-.53-1.47s6.25-3.474 12.44-9.82l5.73 15.632-38.87 14.697zM1198.22 32.046c5.04 0 9.12-4.088 9.12-9.13 0-5.043-4.08-9.13-9.12-9.13-5.03 0-9.12 4.087-9.12 9.13 0 5.042 4.09 9.13 9.12 9.13zM1202.72 55.14l-30.52-12.957s.4-1.074 1.41-2.82c1.01-1.745 8.79-10.674 20.39-5.639 11.6 5.035 10.26 16.783 9.79 18.462-.47 1.678-1.07 2.954-1.07 2.954zM1089.2 46.68c7.34 0 13.3-5.96 13.3-13.314s-5.96-13.315-13.3-13.315c-7.35 0-13.3 5.961-13.3 13.315 0 7.353 5.95 13.315 13.3 13.315z" fill="#FDE4C2"/><path d="M1089.2 7.698c14.14 0 25.64 11.514 25.64 25.667 0 14.154-11.5 25.668-25.64 25.668s-25.64-11.514-25.64-25.668c0-14.153 11.5-25.667 25.64-25.667zm0-5.37c-17.13 0-31.01 13.895-31.01 31.037 0 17.143 13.88 31.039 31.01 31.039 17.12 0 31-13.896 31-31.038s-13.88-31.039-31-31.039zM962.855 40.296a6.628 6.628 0 0 0 6.625-6.631 6.628 6.628 0 0 0-6.625-6.632 6.627 6.627 0 0 0-6.624 6.632 6.627 6.627 0 0 0 6.624 6.631zM979.379 50.543l-23.411 5.622s-.228-.801-.393-2.255c-.166-1.454.527-10.032 9.475-12.106 8.947-2.074 13.232 5.367 13.682 6.55.449 1.184.647 2.19.647 2.19zM1010.94 16.127l-35.08 8.231.449 1.918 35.081-8.232-.45-1.918zM1012.25 21.2l-35.079 8.232.448 1.917 35.081-8.232-.45-1.917zM1013.69 26.81l-35.089 8.233.449 1.917 35.08-8.232-.44-1.917zM1015 32.478l-35.088 8.232.449 1.917 35.089-8.232-.45-1.917zM1016.37 38.089l-35.086 8.232.449 1.917 35.087-8.232-.45-1.917z" fill="#FDE4C2"/><path d="M1012.74 12.744c2.66 11.323 6.44 27.421 7.21 30.826-6.61 1.651-59.893 14.285-66.449 15.755-.461-2.079-2.635-11.381-5.203-22.36-.962-4.11-1.747-7.468-1.988-8.511 22.157-5.27 62.45-14.837 66.43-15.71zm.62-1.964c-.2 0-.42.026-.65.051-.82.09-67.678 15.995-67.678 15.995-.995.196-.667 1.544-.626 1.729.246 1.112 7.154 30.523 7.333 31.508.161.888.468 1.266 1.183 1.266.077 0 .16-.004.247-.013.894-.09 67.241-15.844 67.961-16.112.71-.269.89-.716.8-1.343-.09-.626-7.52-32.224-7.52-32.224-.2-.7-.56-.857-1.05-.857zM852.126 13.338s40.864 9.31 41.938 9.667c1.073.358 1.251.873 1.073 1.723-.179.85-1.599 6.39-1.599 6.39L849.51 20.878s1.389-6.017 1.554-6.758c0 0 .218-.975 1.062-.783zM848.817 23.675s-5.392 23.025-5.633 23.914c-.244.902-.365 1.541.3 1.71 1.052.263 41.312 9.45 42.109 9.802.796.352 1.467.11 1.636-.605.166-.714 5.494-24.66 5.494-24.66l-43.906-10.16zm25.777 10.45l6.919 1.43-.896 4.915-6.991-1.501.968-4.845zm-8.27-1.859l6.918 1.434-.899 4.911-6.988-1.498.969-4.847zm-8.094-1.901l6.919 1.431-.896 4.914-6.991-1.5.968-4.845zm-1.317 6.504l6.919 1.431-.896 4.912-6.991-1.499.968-4.844zm-8.249-1.856l6.919 1.434-.896 4.912-6.991-1.499.968-4.847zm4.413 12.691l-6.991-1.498.969-4.847 6.918 1.434-.896 4.911zm8.249 1.853l-6.991-1.498.969-4.847 6.918 1.433-.896 4.912zm8.182 1.904l-6.991-1.501.969-4.845 6.918 1.432-.896 4.914zm1.395-6.504l-6.991-1.498.969-4.848 6.918 1.434-.896 4.912zm8.171 1.855l-6.988-1.498.968-4.844 6.919 1.431-.899 4.911zm8.45 2.082l-6.991-1.499.969-4.844 6.918 1.431-.896 4.912zm-5.649-7.844l.968-4.845 6.918 1.432-.896 4.914-6.99-1.501zM761.032 58.134c12.785 0 23.15-10.363 23.15-23.146 0-12.784-10.365-23.147-23.15-23.147-12.785 0-23.15 10.363-23.15 23.147 0 12.783 10.365 23.146 23.15 23.146zM1423.25 12.085s1.53 4.186 5.36 9.667c3.53 5.057 6.98 7.52 6.98 7.52l-8.48 12.978s-9.14-4.744-20.68-4.386l16.82-25.779zM1438 30.971l-8.76 12.621 7.33 4.834s6.12 3.58 10.11-2.582c4.2-6.512-1.8-10.486-1.8-10.486L1438 30.97zM1428.02 45.808l6.64 4.43-7.61 6.278s-1.14 1.074-2.99 0c-1.84-1.074-4.63-3.122-4.63-3.122s-1.47-2.081 1.21-2.517c2.68-.437 3.25-1.343 7.38-5.07zM1413.4 9.254l.64 3.371s-5.55.791-8.62 5.633c-4.19 6.604-2.06 10.681-2.06 10.681l-3.25.656s-3.49-15.102 13.29-20.341z" fill="#FDE4C2"/><path d="M1414.44 15.307l.67 3.223s-6.71 1.029-6.13 9.264l-3.26.582s-1.83-10.339 8.72-13.069z" fill="#FDE4C2"/><path d="M1871.13 51.348c5.04 0 9.12-4.088 9.12-9.13 0-5.043-4.08-9.13-9.12-9.13-5.04 0-9.12 4.087-9.12 9.13 0 5.042 4.08 9.13 9.12 9.13zM1874.38 74.59l-29.99-14.119s.44-1.057 1.51-2.763c1.08-1.706 9.19-10.329 20.59-4.852s9.61 17.166 9.08 18.824c-.54 1.66-1.19 2.91-1.19 2.91zM1645.88 43.29l7.24 34.44 41.38-8.794s.8-.034 1.01.744c.22.86-.54 1.27-.54 1.27l-3.09.694s-37.73 7.944-38.72 8.19c-.98.246-1.54-.135-1.83-1.03-.29-.895-7.38-34.182-7.38-34.92 0 0-.1-.856.8-1.013.93-.16 1.13.42 1.13.42z" fill="#B3CDE0"/><path d="M1685.66 36.527l-.7-5.555-5.13 1.594 2.09 1.293-7.81 10.27s-9.82-2.18-10.46-2.293c-.64-.112-.73-.201-1.16.459-.44.66-8.14 14.445-8.14 14.445s-.51.85.26 1.363c.89.592 1.48-.11 1.48-.11l7.76-14.03s9.79 2.248 10.33 2.382c.53.135.7.235 1.17-.402.47-.638 8.35-10.91 8.35-10.91l1.96 1.494zM1654.04 66.788l5.56-1.231 1.84 8.347-5.44 1.275-1.96-8.391z" fill="#B3CDE0"/><path d="M1666.56 72.83l5.52-1.254-4.52-20.408-5.43 1.342 4.43 20.32zM1677.04 70.547l5.45-1.253-3.64-16.067-5.3 1.23 3.49 16.09zM1687.48 68.31c.11-.023 5.45-1.254 5.45-1.254l-5.41-24.907-5.27 1.209 5.23 24.951zM1800.8 62.364l-11.66-20.6-.04-.086c.49-5.436-1-7.656-1-7.656-.8-1.395-1.93-2.421-2.33-2.885-.4-.465-2.13-.165-2.49 1.092-.37 1.263-2.1 7.23-2.47 7.792-.36.562-1.26.631-1.69.498-.44-.132-1.83-.466-2.49-.763-.67-.297-.87-.465-1.24-1.194-.36-.73-.06-1.427-.06-1.427s1.49-5.367 1.79-6.396c.3-1.03.04-1.326-.16-1.79-.2-.465-.6-.565-1.2-1.061s-1.46-.2-1.46-.2-4.03 1.359-6.45 5.57c-2.43 4.212-.84 8.221-.84 8.221h-2.26l-3.72 6.233 5.28 1.427-.76 2.652-18.22-5.206s-.27-.167-.84-.098c-.56.063-.69 1.158-.63 1.357.07.2.67.43.67.43l18.62 5.172-.9 2.752-18.16-5.105s-.13-.199-.63-.098c-.49.098-.96.796-.76 1.257.2.467.33.3.33.3l18.72 5.503-.73 2.387-8.04-2.188-2.4 4.044s11.64 20.553 11.84 20.819c.2.265.2.53 1 .596.8.067 23.28 0 23.28 0s10.97-18.299 11.57-19.558c.6-1.26.53-1.79.53-1.79zm-11.29-13.475c-.15.117-.23.199-.3.297-.06.1 0 .117-.23.25-.23.132.12-.184-.47.296-.58.483-.38.433-.58.483-.2.048-.33.048-.4 0-.07-.05-.38-.085-.22-.281.15-.202.11-.167.24-.3.13-.132.16-.28.16-.28s.12-.216-.11-.083c-.23.133-.18.215-.29.329-.11.117-.04.1-.23.201-.18.099-.4.099-.4.099s-.1 0-.13-.133-.13-.25-.06-.316c.06-.066.14-.116.25-.199a.59.59 0 0 0 .16-.297c0-.05 0-.183-.2-.1-.2.082-.2-.099-.43.214-.23.316-.3.3-.45.316-.15.019-.32.066-.43.019a2.86 2.86 0 0 1-.24-.117l-.11-.183s1.43-1.026 2.39-2.156l.3.233-.08.515s.33.214.41 0c.09-.218.25-.465.4-.483.15-.016.33.085.35.265.02.183.12.284 0 .398l-.11.117s-.15.183 0 .167c.14-.019-.01-.101.17-.133l.17-.034s0 .084.09.034c.08-.05.2 0 .08.082l-.12.083s-.11.132.02.132.2-.032.25-.05c.05-.016-.05-.098.05-.016.1.085.1.233.1.331 0 .101.15.184 0 .3zm-.05-4.89c-.36 1.923-1.39 2.885-1.39 2.885l-.37-.201c1.23-1.026 1.76-2.684 1.76-2.684zm-1.16-1.194c-.2.165-.57 0-.57 0 1.78-5.956-.3-9.308-.48-9.592 2.5 2.893 1.25 9.428 1.05 9.593zm-4.56-10.31s.83-2.106 2.53 0c3.58 4.455.93 10.146.93 10.146l-4.76-1.262s-.2-.098-.53-.43c-.33-.331-.4-1.06-.4-1.06l2.23-7.395zm-9.08-4.308c.73-.201 1 .165 1.23.663.24.496.07 1.292.07 1.292l-2.06 7.195c-.2 1.59 1.76 2.784 1.76 2.784l13.37 3.58c-.96 2.785-4.56 5.071-4.56 5.071l.67-4.275s-9.08-3.283-9.61-3.482c-.54-.199-.73-.167-.84 0-.09.167-.79 1.557-.79 1.557l-6.82-2.185c-.66-8.919 6.85-12.003 7.58-12.2zm.08 51.967c-.08.321-.21 0-.21 0l8.33-30.1s1.14-.685 1.25-.73c.11-.042.18.157.18.157-.16.22-1.07 1.015-1.07 1.015s-8.39 29.337-8.48 29.658zm7.73-19.227l8.87 2.222s.32.515.53.72c.36.362 1.26.917 1.26.917l-11-2.918.34-.941zm-2.6-13.016v-3.867h.42v3.867h-.42zm.87.265v-3.867h.42v3.867h-.42zm-1.4-4.397v3.866h-.42V43.78h.42zm-.89-.31v3.866h-.42v-3.867h.42zm-.88-.332v3.867h-.43v-3.867h.43zm-.89-.265v3.867h-.42v-3.867h.42zm-.97-.377v3.87h-.43v-3.87h.43zm-22.5 19.67l1.37-2.254 10.67 1.56-4.16 14.65-7.88-13.955zm17.11 20.554l-5.49-.117-1.14-2.055c.1-.183 1.06-.91 1.06-.91 2.89-1.875 5.59 1.424 5.57 2.072-.02.644 0 1.01 0 1.01zm-7.56-5.304l7.11-25.394s.57-1.201 1.4-1.458c4.12-1.281 6.37.257 7.58 1.835 1.02 1.326 1.02 2.297.76 3.05-.36 1-6.88 25.083-6.88 25.083s-3.23-4.962-9.97-3.116zm25.38 5.304l-13.92-.178 5.81-18.784 13.57 1.856c.44.883 1.24 1.148 1.95 1.504.71.353 1.68.44 1.68.44l-9.09 15.162zm11.35-21.172s-1.59-.663-2.26-.795c-.66-.133-1.02-.09-1.82 0-.79.087-2.21.928-2.97 1.193-.75.265-1.33.265-1.33.265l-8.38-2.432.71-1.811s7.8 2.122 8.96 2.474c1.15.353 1.2.266 1.73.266s1.28-.486 2.21-.618c.94-.133 2.53.485 2.93.75.4.265.22.708.22.708z" fill="#B3CDE0"/></svg>