<svg width="334" height="67" viewBox="0 0 334 67" fill="none" xmlns="http://www.w3.org/2000/svg"><path d="M166.693 10.312c88.513 0 160.939-4.36 166.602-9.873l-33.214 54.828S240.175 66.43 165.087 66.43c-70.504 0-131.244-11.03-131.244-11.03L.332.642c7.199 5.417 78.933 9.671 166.361 9.671z" fill="#FB7713"/><path d="M333.295.44l-33.11 54.201S287.424 57 266.308 59.536l26.219-52.91c23.358-1.674 38.32-3.823 40.768-6.187z" fill="#FC9547"/><path d="M67.636 45.105c.8.075 1.2.111 1.998.184l-.28.74c.333-.252.661-.442.987-.57a2.334 2.334 0 0 1 1.079-.14c.385.034.736.133 1.053.297.316.165.586.386.81.665.222.28.385.612.489 1 .103.387.134.816.093 1.287a4.391 4.391 0 0 1-1.476 2.963 3.981 3.981 0 0 1-1.327.773c-.486.168-.981.23-1.484.183-.555-.05-.997-.198-1.326-.44a2.688 2.688 0 0 1-.788-.924c-.449 1.218-.673 1.828-1.124 3.045l-2.014-.19c1.11-2.955 2.212-5.913 3.31-8.873zm2.634 5.559c.262-.1.5-.252.713-.456.213-.204.392-.448.537-.733.145-.285.234-.606.266-.963.04-.46-.062-.832-.308-1.112-.244-.28-.59-.44-1.037-.481a1.794 1.794 0 0 0-.82.117 2.234 2.234 0 0 0-.726.46 2.635 2.635 0 0 0-.544.731 2.503 2.503 0 0 0-.265.923c-.041.443.066.815.322 1.114.257.3.61.47 1.059.511a1.79 1.79 0 0 0 .803-.111zM76.604 52.883a3.121 3.121 0 0 1-1.015-.765 2.943 2.943 0 0 1-.593-1.086 3.497 3.497 0 0 1-.127-1.323c.045-.524.195-1.02.447-1.491.252-.47.579-.879.979-1.223.4-.344.857-.608 1.372-.794a3.813 3.813 0 0 1 1.625-.208c.526.043.99.162 1.394.357.403.195.74.448 1.012.76.27.312.47.673.597 1.082.127.41.172.851.135 1.323a3.734 3.734 0 0 1-.444 1.493 4.31 4.31 0 0 1-2.357 2.025 3.805 3.805 0 0 1-1.622.21 3.924 3.924 0 0 1-1.403-.36zm2.492-1.476a2.31 2.31 0 0 0 .686-.509 2.61 2.61 0 0 0 .678-1.49c.042-.519-.066-.928-.325-1.227-.258-.3-.616-.468-1.073-.506a1.61 1.61 0 0 0-.855.156c-.263.128-.49.297-.685.506-.195.21-.352.45-.471.718-.12.269-.19.526-.211.771-.043.519.063.928.322 1.229.259.3.617.47 1.076.507.308.025.594-.026.858-.155zM84.711 53.697a4.807 4.807 0 0 1-1.606-.756 3.59 3.59 0 0 1-.657-.617c.503-.44.755-.662 1.257-1.103.34.396.696.674 1.065.834.369.16.713.252 1.03.276.265.02.475-.018.633-.111a.525.525 0 0 0 .259-.442c.01-.13-.057-.252-.199-.364a3.453 3.453 0 0 0-.571-.352c-.27-.136-.53-.275-.766-.42a3.592 3.592 0 0 1-.62-.476 1.833 1.833 0 0 1-.408-.578 1.522 1.522 0 0 1-.108-.74c.027-.349.118-.67.273-.96.154-.292.361-.537.62-.737.257-.2.566-.35.926-.45.36-.1.76-.133 1.199-.1.289.021.565.07.829.146a4.769 4.769 0 0 1 1.38.654c.19.132.353.27.493.411-.468.473-.701.709-1.17 1.18-.323-.296-.631-.511-.921-.647a2.48 2.48 0 0 0-.87-.236c-.245-.018-.44.02-.584.115a.52.52 0 0 0-.237.416c-.01.14.061.27.215.392.154.12.381.258.666.412.22.12.444.249.668.38.224.13.424.28.597.452.174.17.31.363.409.577.1.214.14.455.12.726a2.386 2.386 0 0 1-.294 1.02c-.168.295-.387.54-.659.735-.272.196-.59.336-.957.423-.365.087-.76.115-1.184.083a4.717 4.717 0 0 1-.828-.143zM91.737 47.072l2 .138c-.95 2.759-1.426 4.138-2.386 6.895l-2.013-.144a1796.33 1796.33 0 0 0 2.399-6.89zm.821-2.498l2.1.144-.605 1.737c-.842-.057-1.263-.086-2.104-.145.243-.694.365-1.042.61-1.736zM94.495 54.043a1.257 1.257 0 0 1-.384-1.015c.01-.15.03-.294.063-.432.03-.139.074-.286.129-.44.43-1.255.643-1.881 1.07-3.136l-.842-.056.573-1.66.843.055.604-1.763 1.997.128-.6 1.766 1.658.105-.568 1.662-1.66-.105-.985 2.909a.944.944 0 0 0-.073.312c-.018.28.153.432.515.456.159.01.33.001.512-.026.184-.028.361-.071.533-.13l-.572 1.661c-.428.166-.918.23-1.475.194-.609-.04-1.056-.202-1.338-.485zM101.172 47.692l2 .12c-.924 2.767-1.389 4.15-2.324 6.915-.805-.05-1.208-.073-2.013-.124.94-2.763 1.407-4.146 2.337-6.911zm.798-2.505c.841.05 1.261.076 2.102.125l-.59 1.742c-.842-.05-1.264-.075-2.106-.127l.594-1.74zM104.331 47.88c.821.048 1.232.072 2.054.118.02 1.88.031 2.82.053 4.7 1.231-1.809 1.844-2.715 3.066-4.53.858.047 1.288.069 2.146.113a1155.729 1155.729 0 0 1-5.041 6.835c-.732-.04-1.098-.062-1.829-.104-.182-2.852-.272-4.279-.449-7.132zM113.606 53.608c.244.262.631.406 1.16.431.264.013.523-.019.774-.095.252-.076.527-.207.828-.394l.869 1.276c-.33.248-.722.452-1.176.61-.455.158-.987.222-1.597.193a4.083 4.083 0 0 1-1.368-.284 2.898 2.898 0 0 1-1.003-.668 2.638 2.638 0 0 1-.599-1.01 3.604 3.604 0 0 1-.158-1.324 4.109 4.109 0 0 1 .375-1.5 4.295 4.295 0 0 1 2.291-2.208 3.958 3.958 0 0 1 1.736-.285c.457.022.861.111 1.215.268.353.156.648.363.883.619.234.256.408.553.521.891.112.338.16.705.142 1.099a3.52 3.52 0 0 1-.128.783 4.929 4.929 0 0 1-.3.802 894.73 894.73 0 0 1-4.852-.23c.015.423.143.764.387 1.026zm2.923-2.115a1.6 1.6 0 0 0 .087-.457 1.06 1.06 0 0 0-.236-.747c-.171-.21-.463-.325-.876-.344a1.889 1.889 0 0 0-1.226.356 2.456 2.456 0 0 0-.826 1.044c1.231.06 1.847.09 3.077.148zM125.61 54.131c.246.26.634.398 1.164.418.265.01.522-.025.773-.104.25-.078.525-.212.823-.404l.884 1.267c-.328.252-.717.46-1.169.623-.453.163-.985.234-1.594.212a4.086 4.086 0 0 1-1.371-.27c-.4-.16-.738-.378-1.01-.656a2.636 2.636 0 0 1-.611-1.004 3.599 3.599 0 0 1-.172-1.321c.02-.508.139-1.01.357-1.505.218-.495.519-.934.904-1.318a4.329 4.329 0 0 1 1.362-.915 3.961 3.961 0 0 1 1.733-.303c.456.016.861.1 1.217.252.355.153.652.357.889.61.238.254.415.548.531.885.116.337.168.703.155 1.097a3.513 3.513 0 0 1-.119.785c-.07.27-.167.538-.291.805-1.941-.065-2.912-.1-4.853-.174.019.421.151.76.398 1.02zm2.899-2.148c.049-.147.075-.3.081-.458a1.065 1.065 0 0 0-.244-.744c-.174-.208-.467-.32-.88-.334a1.89 1.89 0 0 0-1.222.369 2.448 2.448 0 0 0-.813 1.054c1.23.047 1.846.07 3.078.113zM132.788 49.154c.801.025 1.202.037 2.003.06l-.219.724a5.25 5.25 0 0 1 .848-.575 2.03 2.03 0 0 1 1.047-.232c.483.014.878.137 1.184.371.306.234.655.944.655.944.062.013.69-.66 1.117-.884.428-.224.909-.33 1.445-.317.633.015 1.127.207 1.483.579.357.372.528.877.514 1.516a3.196 3.196 0 0 1-.086.649c-.054.23-.114.46-.18.686-.44 1.504-.662 2.256-1.105 3.76-.806-.018-1.209-.028-2.015-.049.457-1.538.685-2.306 1.139-3.845a2.843 2.843 0 0 0 .107-.63c.014-.579-.291-.877-.916-.892-.396-.01-.72.112-.973.364-.253.253-.442.59-.568 1.007a1795.01 1795.01 0 0 1-1.177 3.935 784.99 784.99 0 0 1-2.016-.056c.464-1.536.696-2.305 1.156-3.842a2.81 2.81 0 0 0 .11-.629c.016-.579-.289-.877-.913-.895-.396-.011-.721.108-.975.36s-.445.587-.572 1.004c-.476 1.572-.714 2.358-1.193 3.93l-2.015-.065c.851-2.791 1.274-4.186 2.115-6.978zM144.618 56.495a1.831 1.831 0 0 1-1.054-1.014 1.861 1.861 0 0 1-.137-.766c.009-.402.096-.76.261-1.072.166-.312.387-.574.665-.787.277-.214.602-.371.975-.474.372-.102.774-.15 1.205-.142.387.008.742.042 1.062.105.32.062.63.144.928.245l.027-.09.058-.243c.019-.082.029-.177.031-.282a.728.728 0 0 0-.281-.603c-.191-.156-.537-.239-1.039-.248a4.605 4.605 0 0 0-1.012.094 5.513 5.513 0 0 0-.882.253l-.286-1.583a7.268 7.268 0 0 1 1.219-.338 6.918 6.918 0 0 1 1.413-.113c.958.016 1.67.217 2.139.6.469.384.698.922.688 1.613a3.08 3.08 0 0 1-.054.539 6.99 6.99 0 0 1-.12.524c-.44 1.55-.66 2.323-1.103 3.872-.78-.012-1.17-.018-1.95-.032l.226-.811c-.288.302-.61.53-.967.686-.357.156-.747.23-1.172.221a2.425 2.425 0 0 1-.84-.154zm2.332-1.296c.191-.071.366-.171.528-.3.161-.128.301-.276.419-.446.117-.168.204-.35.26-.541l.056-.183a3.799 3.799 0 0 0-.605-.188 3.474 3.474 0 0 0-.713-.084c-.423-.008-.771.084-1.044.276a.947.947 0 0 0-.419.8.67.67 0 0 0 .241.543c.165.143.389.218.672.223.212.004.413-.03.605-.1zM153.132 49.595l2.003.023c-.788 2.809-1.184 4.213-1.982 7.02l-2.016-.025c.803-2.806 1.202-4.21 1.995-7.018zm.675-2.541c.841.01 1.261.014 2.103.022l-.503 1.77-2.108-.025.508-1.767zM157.815 47.092c.8.007 1.199.01 1.998.014-.877 3.193-1.761 6.384-2.654 9.572-.807-.006-1.21-.01-2.017-.018.899-3.187 1.791-6.376 2.673-9.568zM164.407 56.707a1.874 1.874 0 0 1-.649-.395 1.85 1.85 0 0 1-.423-.598 1.845 1.845 0 0 1-.15-.763c.001-.403.081-.762.241-1.077.159-.315.376-.582.649-.8.273-.218.595-.381.965-.49a4.246 4.246 0 0 1 1.203-.165c.387 0 .742.028 1.064.085.321.056.632.132.932.227l.025-.091c.018-.079.036-.16.053-.243a1.42 1.42 0 0 0 .026-.283.73.73 0 0 0-.292-.597c-.194-.153-.542-.23-1.043-.229a4.6 4.6 0 0 0-1.01.113 5.524 5.524 0 0 0-.877.268l-.316-1.577c.37-.148.774-.268 1.214-.36a6.898 6.898 0 0 1 1.409-.14c.957 0 1.674.186 2.15.56.476.375.715.91.718 1.6.001.185-.013.364-.044.54a7.55 7.55 0 0 1-.11.526c-.412 1.557-.618 2.336-1.033 3.892-.78.003-1.169.004-1.95.005l.211-.816a2.98 2.98 0 0 1-.953.705 2.764 2.764 0 0 1-1.168.242c-.309 0-.59-.047-.842-.14zm2.307-1.34c.19-.073.364-.176.523-.308.159-.131.295-.283.41-.454a1.85 1.85 0 0 0 .25-.546l.052-.184a3.719 3.719 0 0 0-1.323-.248c-.423 0-.769.1-1.038.296a.95.95 0 0 0-.404.808c0 .219.084.398.252.539.167.14.393.21.675.21.213 0 .413-.037.603-.112zM172.699 49.651c.801-.005 1.201-.009 2.002-.015l-.191.73c.253-.227.537-.429.852-.606a2.183 2.183 0 0 1 1.065-.27c.632-.007 1.139.17 1.521.529.382.359.576.858.584 1.497.002.202-.019.42-.065.651-.046.233-.097.464-.157.693a1272.06 1272.06 0 0 1-.977 3.794c-.806.009-1.21.013-2.016.02.406-1.553.607-2.33 1.01-3.882a2.773 2.773 0 0 0 .086-.633c-.003-.28-.091-.495-.264-.643-.173-.147-.413-.22-.721-.217-.396.003-.72.136-.973.397s-.436.603-.547 1.025c-.416 1.589-.625 2.383-1.045 3.972-.806.005-1.21.007-2.016.01.746-2.82 1.116-4.23 1.852-7.052zM181.277 56.533a2.499 2.499 0 0 1-.876-.58 2.648 2.648 0 0 1-.589-.944 3.705 3.705 0 0 1-.222-1.272 4.397 4.397 0 0 1 .309-1.725 4.42 4.42 0 0 1 .858-1.372c.36-.386.771-.688 1.234-.905.462-.217.943-.33 1.444-.338.553-.009 1.005.089 1.356.295.351.206.644.482.879.831.353-1.44.529-2.16.879-3.6.799-.015 1.199-.023 1.998-.04-.786 3.216-1.58 6.43-2.382 9.641-.806.015-1.209.023-2.016.036l.199-.771a4.242 4.242 0 0 1-.923.677 2.32 2.32 0 0 1-1.064.255 2.829 2.829 0 0 1-1.084-.188zm2.691-1.722c.258-.13.485-.309.679-.534.195-.226.349-.487.463-.785.114-.298.167-.613.161-.944-.008-.443-.155-.8-.441-1.068-.287-.27-.654-.4-1.103-.392a1.78 1.78 0 0 0-.782.195c-.249.126-.469.3-.659.526a2.681 2.681 0 0 0-.62 1.765c.006.461.146.818.419 1.07.273.253.635.375 1.085.368.273-.004.54-.07.798-.201zM194.419 47.134c.81-.021 1.214-.032 2.024-.055-.586 2.47-1.179 4.94-1.774 7.41a913.32 913.32 0 0 0 4.62-.135l-.447 1.855c-2.667.082-4.001.118-6.669.184.755-3.085 1.504-6.17 2.246-9.259zM202.024 49.059l2.001-.07c-.657 2.843-.989 4.264-1.657 7.105l-2.015.067c.673-2.84 1.008-4.26 1.671-7.102zm.556-2.57a820.56 820.56 0 0 0 2.103-.074l-.423 1.79-2.105.073c.171-.715.256-1.073.425-1.788zM205.908 48.92c.801-.03 1.201-.046 2.002-.078l-.17.737c.246-.236.525-.447.834-.633a2.182 2.182 0 0 1 1.056-.304c.631-.026 1.143.134 1.536.48.393.347.604.84.632 1.48.009.201-.006.42-.045.653-.038.234-.084.465-.135.695-.342 1.53-.514 2.295-.859 3.824l-2.014.084c.357-1.565.534-2.347.888-3.912.023-.097.04-.206.053-.325.013-.119.017-.222.013-.31-.011-.28-.106-.493-.283-.635-.177-.142-.42-.207-.728-.194-.396.016-.716.158-.96.427-.245.269-.417.617-.515 1.042-.367 1.601-.551 2.402-.921 4.002l-2.015.074c.658-2.843.984-4.264 1.631-7.107zM214.639 46.003l1.996-.094c-.441 2.01-.663 3.015-1.108 5.024 1.1-1.02 1.649-1.53 2.743-2.551 1.043-.052 1.564-.078 2.607-.133a751.51 751.51 0 0 1-3.277 2.914c.701 1.687 1.053 2.53 1.759 4.215-.901.045-1.352.066-2.253.11l-1.147-2.93-.979.86-.484 2.192c-.806.037-1.208.055-2.014.09.726-3.23 1.447-6.463 2.157-9.697zM223.13 53.36c.27.236.668.34 1.197.31.265-.014.519-.072.761-.173a3.52 3.52 0 0 0 .782-.479c.398.473.597.71.996 1.181a4.3 4.3 0 0 1-1.107.727c-.436.204-.959.324-1.569.357a4.094 4.094 0 0 1-1.389-.142 2.882 2.882 0 0 1-1.066-.562 2.638 2.638 0 0 1-.699-.944 3.584 3.584 0 0 1-.292-1.3 4.31 4.31 0 0 1 2.271-3.96 3.964 3.964 0 0 1 1.697-.463c.456-.025.867.022 1.235.141.368.12.682.294.941.525.26.23.464.509.61.834.146.324.231.684.254 1.077.015.254-.001.518-.047.793a4.844 4.844 0 0 1-.217.828c-1.939.112-2.908.166-4.848.27.058.418.221.745.49.98zm2.691-2.404c.035-.151.049-.306.04-.463a1.07 1.07 0 0 0-.311-.72c-.192-.19-.495-.275-.908-.252a1.888 1.888 0 0 0-1.183.48c-.332.294-.57.669-.713 1.123 1.23-.066 1.845-.099 3.075-.168zM230.567 54.685a2.487 2.487 0 0 1-.902-.538 2.671 2.671 0 0 1-.632-.916 3.736 3.736 0 0 1-.28-1.26 4.437 4.437 0 0 1 1.025-3.148 3.993 3.993 0 0 1 1.189-.961 3.507 3.507 0 0 1 1.428-.405c.553-.035 1.009.043 1.369.232.36.19.665.452.916.79.286-1.456.429-2.182.713-3.637.798-.052 1.196-.08 1.994-.133-.637 3.248-1.282 6.495-1.936 9.74l-2.012.13.163-.781a4.226 4.226 0 0 1-.892.72c-.303.178-.654.28-1.051.304a2.822 2.822 0 0 1-1.092-.137zm2.609-1.845a2.2 2.2 0 0 0 .654-.565 2.62 2.62 0 0 0 .427-.806c.1-.303.139-.62.118-.95-.028-.441-.193-.79-.491-1.046-.299-.255-.672-.37-1.12-.34-.273.016-.53.094-.772.23a2.105 2.105 0 0 0-.634.556 2.692 2.692 0 0 0-.539 1.792c.027.46.184.811.468 1.05.285.24.652.345 1.101.317.273-.017.536-.096.788-.238zM239.421 44.964c.809-.056 1.213-.085 2.021-.143-.604 3.118-1.215 6.234-1.834 9.35l-2.038.138c.625-3.113 1.243-6.228 1.851-9.345zM243.107 46.862l1.999-.148-.142.742c.237-.245.507-.465.81-.662a2.18 2.18 0 0 1 1.044-.341c.631-.049 1.149.094 1.554.427.405.333.633.818.683 1.456.016.2.009.418-.021.653-.03.236-.068.47-.112.701-.288 1.54-.433 2.31-.724 3.851-.804.062-1.207.094-2.011.154.302-1.576.452-2.365.751-3.94.019-.099.033-.208.042-.327.008-.12.009-.223.002-.31-.021-.28-.123-.488-.306-.624-.182-.136-.427-.193-.734-.17-.395.03-.71.184-.946.462-.235.277-.395.63-.478 1.059-.31 1.613-.465 2.419-.779 4.032-.804.058-1.207.088-2.012.145.557-2.864.833-4.296 1.38-7.16zM255.185 45.911c.799-.067 1.198-.102 1.997-.17l-.259 1.446c.314-.555.672-.988 1.073-1.3.401-.312.892-.47 1.474-.478l-.382 2.13-.106.01c-.666.058-1.228.309-1.685.753-.457.444-.77 1.135-.938 2.071l-.464 2.546-2.01.168c.526-2.87.786-4.305 1.3-7.176zM262.171 50.542c.278.226.68.314 1.208.265.264-.024.516-.09.754-.2.239-.11.493-.28.765-.508l1.039 1.143a4.313 4.313 0 0 1-1.08.768c-.429.22-.947.358-1.555.414a4.089 4.089 0 0 1-1.395-.09 2.898 2.898 0 0 1-1.086-.523 2.648 2.648 0 0 1-.734-.917c-.183-.37-.296-.801-.339-1.29a4.112 4.112 0 0 1 .162-1.538 4.3 4.3 0 0 1 1.963-2.504 3.964 3.964 0 0 1 1.681-.523c.454-.042.868-.01 1.24.095.372.106.692.27.96.49.268.222.482.492.641.811.158.32.256.676.293 1.068.024.253.018.517-.017.793a4.835 4.835 0 0 1-.187.836c-1.935.184-2.902.273-4.838.448.072.416.248.736.525.962zm2.602-2.503a1.6 1.6 0 0 0 .023-.464 1.068 1.068 0 0 0-.338-.707c-.199-.184-.503-.257-.915-.219a1.891 1.891 0 0 0-1.166.522c-.322.306-.546.69-.673 1.15 1.228-.11 1.842-.167 3.069-.282zM268.659 44.687a898.37 898.37 0 0 0 1.995-.196l-.134.778c.278-.309.565-.557.86-.745.295-.188.64-.301 1.033-.341a2.805 2.805 0 0 1 1.09.094c.342.101.648.268.92.5.271.232.494.528.668.89.175.36.287.775.335 1.245a4.39 4.39 0 0 1-.153 1.746 4.365 4.365 0 0 1-.738 1.443 4.002 4.002 0 0 1-1.158 1.01 3.53 3.53 0 0 1-1.421.46c-.555.055-1.017-.006-1.385-.183a2.693 2.693 0 0 1-.949-.759c-.211 1.281-.316 1.922-.529 3.203-.805.078-1.207.117-2.013.193.532-3.112 1.06-6.224 1.579-9.338zm3.631 4.962c.239-.147.444-.34.615-.582.171-.24.301-.515.389-.822a2.61 2.61 0 0 0 .079-.996c-.047-.46-.218-.804-.511-1.033-.293-.229-.661-.322-1.108-.277a1.799 1.799 0 0 0-.784.268c-.241.152-.45.348-.626.59a2.65 2.65 0 0 0-.397.821c-.09.307-.117.625-.085.956.043.443.218.788.527 1.034.308.246.687.347 1.135.302.272-.027.528-.114.766-.261zM278.007 41.172l1.989-.214c-.51 3.272-1.03 6.543-1.556 9.813-.803.085-1.204.127-2.007.21.531-3.269 1.058-6.538 1.574-9.81zM281.556 43.352l1.993-.22c-.443 2.883-.668 4.325-1.122 7.208l-2.007.219c.459-2.883.687-4.324 1.136-7.207zm.362-2.605c.838-.092 1.256-.138 2.093-.232l-.286 1.817-2.097.233c.117-.727.175-1.091.29-1.818zM287.024 47.994c.283.22.688.298 1.215.237.263-.03.513-.103.749-.218.236-.116.487-.29.754-.525l1.065 1.117c-.286.299-.64.564-1.063.794-.423.23-.939.381-1.546.451-.51.059-.976.039-1.397-.059a2.889 2.889 0 0 1-1.097-.496 2.64 2.64 0 0 1-.756-.9 3.584 3.584 0 0 1-.37-1.282 4.103 4.103 0 0 1 .127-1.54 4.286 4.286 0 0 1 1.905-2.55 3.977 3.977 0 0 1 1.669-.563c.454-.053.867-.03 1.242.067s.699.253.973.467c.273.215.493.48.659.795.166.315.272.669.318 1.06.03.253.03.517.001.794-.03.277-.085.557-.167.84-1.931.23-2.897.341-4.829.562.082.414.265.73.548.95zm2.544-2.563c.027-.152.031-.307.013-.464a1.063 1.063 0 0 0-.354-.699c-.203-.179-.51-.245-.922-.197a1.897 1.897 0 0 0-1.154.55 2.446 2.446 0 0 0-.644 1.165c1.224-.14 1.836-.211 3.061-.355zM294.415 49.035a4.865 4.865 0 0 1-.879-.132 4.67 4.67 0 0 1-.844-.295 3.626 3.626 0 0 1-.766-.477c.408-.53.611-.796 1.018-1.327.412.321.815.524 1.208.609.393.085.748.108 1.064.07.263-.033.463-.11.6-.234a.527.527 0 0 0 .168-.483c-.017-.13-.105-.237-.266-.319a3.495 3.495 0 0 0-.63-.233 10.48 10.48 0 0 1-.832-.263 3.587 3.587 0 0 1-.703-.345 1.825 1.825 0 0 1-.511-.488 1.526 1.526 0 0 1-.252-.703 2.434 2.434 0 0 1 .081-.996c.095-.316.25-.597.464-.843a2.66 2.66 0 0 1 .822-.623 3.49 3.49 0 0 1 1.156-.333 4.04 4.04 0 0 1 .842-.018 4.79 4.79 0 0 1 1.482.371c.211.093.4.196.565.308l-.92 1.385c-.374-.227-.718-.378-1.029-.455a2.496 2.496 0 0 0-.9-.06c-.245.03-.428.105-.55.226a.514.514 0 0 0-.151.454c.017.14.112.254.287.343.175.089.424.178.734.273.238.074.484.158.729.242.246.084.47.193.674.327.203.133.375.295.514.485.14.19.226.42.259.69a2.277 2.277 0 0 1-.592 1.908 2.686 2.686 0 0 1-.855.6 3.864 3.864 0 0 1-1.147.314 4.73 4.73 0 0 1-.84.022zM29.634 10.056c2.56.233 3.84.346 6.4.564a2403.907 2403.907 0 0 1-6.833 19.042 965.489 965.489 0 0 1-6.5-.602c2.336-6.326 4.647-12.66 6.933-19.004zM38.17 10.8c2.398.2 3.597.297 5.997.485 1.218 3.219 2.45 6.433 3.688 9.645 1.05-3.041 2.095-6.085 3.133-9.13 2.543.183 3.815.272 6.359.441a2518.453 2518.453 0 0 1-6.5 19.165c-2.317-.165-3.475-.25-5.79-.427-1.299-3.35-2.588-6.703-3.865-10.06-1.117 3.164-2.24 6.326-3.37 9.485a999.666 999.666 0 0 1-6.452-.55c2.291-6.342 4.56-12.692 6.8-19.054zM69.131 32.036c-1.398.51-2.9.754-4.457.667-5.06-.283-9.486-4.14-9.119-9.46.425-6.155 5.87-11.089 12.045-10.754 5.025.273 9.414 4.123 9.128 9.366-.155 2.852-1.427 5.541-3.462 7.549.528.8.792 1.2 1.322 2a912.35 912.35 0 0 1-4.327 2.514c-.453-.752-.679-1.129-1.13-1.882zm-3.414-4.816c-.656-1.002-.982-1.503-1.635-2.506a930.45 930.45 0 0 0 4.308-2.491c.508.857.761 1.287 1.27 2.143a5.947 5.947 0 0 0 .533-2.154c.117-2.177-1.07-3.9-3.354-4-2.734-.118-4.642 2.41-4.807 4.977-.14 2.166 1.02 3.873 3.352 4.011l.333.02zM77.486 26.343a13.32 13.32 0 0 1 .566-3.135c1.02-3.205 2.032-6.413 3.036-9.623 2.616.121 3.924.177 6.54.283a2048.603 2048.603 0 0 1-3.113 10.055c-.162.553-.268 1.08-.287 1.528-.069 1.62.841 2.499 2.565 2.57.807.032 1.569-.217 2.117-.727.607-.564 1.024-1.303 1.496-2.796 1.062-3.465 2.118-6.932 3.161-10.403 2.618.093 3.927.136 6.546.215-1.13 3.808-2.269 7.614-3.416 11.417-.776 2.576-1.845 4.495-3.256 5.764-2.076 1.866-5.116 2.389-7.831 2.273-4.246-.182-8.402-2.67-8.124-7.421zM102.095 14.368c2.575.072 3.863.105 6.439.163a2528.433 2528.433 0 0 1-5.694 19.433c-2.617-.07-3.925-.11-6.541-.195 1.959-6.459 3.89-12.926 5.796-19.401zM110.682 14.578c2.506.052 5.011.098 7.517.133 2.437-.016 5.314.4 7.09 2.176 1.067 1.069 1.489 2.568 1.49 4.094.002 3.326-2.305 5.979-5.48 6.826 1.049 2.618 1.577 3.927 2.636 6.542a998.667 998.667 0 0 1-7.054-.086c-.837-2.25-1.254-3.375-2.084-5.626l-1.615-.028a1609.62 1609.62 0 0 1-1.616 5.56 970.32 970.32 0 0 1-6.544-.147c1.913-6.473 3.8-12.954 5.66-19.444zm6.165 9.424c2.165.033 3.316-.961 3.331-2.19a1.445 1.445 0 0 0-.402-1.04c-.355-.368-.989-.573-1.902-.586-.919-.014-1.378-.02-2.297-.036-.434 1.525-.651 2.288-1.088 3.812.943.017 1.415.025 2.358.04zM130.376 14.822c2.579.01 3.869.012 6.449.007a2445.447 2445.447 0 0 1-5.246 19.567 972.74 972.74 0 0 1-6.552-.037 2490.207 2490.207 0 0 0 5.349-19.537zM138.975 14.824c5.489-.027 10.976-.084 16.464-.175-.538 2.157-.808 3.236-1.351 5.392-3.388.054-6.777.097-10.166.122l-.513 1.99c3.163-.024 6.326-.06 9.489-.108a1619.3 1619.3 0 0 1-1.188 4.744c-3.175.044-6.349.076-9.525.096l-.575 2.13c3.46-.021 6.919-.056 10.379-.105-.542 2.155-.814 3.233-1.361 5.387-5.622.066-11.243.102-16.865.104 1.763-6.52 3.501-13.045 5.212-19.577zM152.55 31.11c1.474-1.812 2.208-2.72 3.672-4.535 2.26 1.832 4.569 2.678 6.635 2.629.838-.02 1.417-.342 1.404-.9-.014-.615-.44-.909-3.247-1.797-2.484-.786-5.424-2.37-5.411-5.4.02-4.483 4.579-6.953 8.573-7.035 3.067-.064 6.251.748 8.699 2.686a997.157 997.157 0 0 1-3.581 4.585c-1.504-1.158-3.607-2.078-5.658-2.028-.83.02-1.407.257-1.395.816.013.587.473.779 3.146 1.628 2.532.804 5.504 2.39 5.576 5.463.112 4.718-4.524 7.189-8.694 7.254-3.486.054-7.047-1.043-9.719-3.366z" fill="#000"/></svg>