<svg width="171" height="67" viewBox="0 0 171 67" fill="none" xmlns="http://www.w3.org/2000/svg"><path d="M170.517 1.03l-36.02 60.55s-23.023 5.398-49.163 5.398c-28.096 0-49.29-5.397-49.29-5.397L.094.986c3.706 3.371 40.453 6.018 85.236 6.018 44.586 0 81.202-2.623 85.186-5.974z" fill="#D2292C"/><path d="M170.517.986l-35.884 60.327s-13.771 3.229-32.088 4.68l29.469-60.108C153.337 4.82 168.076 3.04 170.517.986z" fill="#DC585A"/><path d="M30.485 10.69c2.813.163 5.627.312 8.441.45 2.941.051 7.283 1.085 7.088 4.824-.12 2.29-4.72 4.815-4.72 4.815-.002.06 3.05 1.947 2.977 3.9-.188 4.937-5.846 5.294-9.525 5.36-3.527-.183-7.052-.388-10.577-.609a2278.847 2278.847 0 0 0 6.316-18.74zm4.706 14.54c1.575.083 2.548-.553 2.595-1.507.04-.816-.63-1.231-2.008-1.303-1.113-.057-1.67-.086-2.782-.147-.37 1.116-.556 1.674-.928 2.79 1.249.07 1.874.103 3.123.168zm2.051-6.666c1.647.083 2.423-.617 2.463-1.435.037-.79-.549-1.144-1.917-1.213a786.26 786.26 0 0 1-2.655-.136c-.34 1.052-.512 1.579-.854 2.63 1.185.064 1.778.095 2.963.154zM46.302 22.306c.272-6.087 5.622-10.95 11.678-10.803 4.92.12 9.425 3.683 9.314 8.874-.134 6.185-5.568 11.076-11.673 10.914-4.953-.132-9.554-3.724-9.319-8.985zm14.516-1.504c.053-2.017-1.139-3.628-3.44-3.697-2.685-.08-4.5 2.475-4.583 4.873-.069 2.016 1.12 3.641 3.443 3.712 2.708.083 4.518-2.49 4.58-4.888zM68.207 22.957c.136-6.093 5.379-11.073 11.433-11.06 4.92.01 9.503 3.469 9.507 8.662.006 6.19-5.317 11.197-11.425 11.172-4.957-.02-9.632-3.506-9.515-8.774zm14.477-1.829c.008-2.017-1.22-3.6-3.522-3.618-2.686-.02-4.443 2.574-4.472 4.973-.024 2.018 1.201 3.616 3.524 3.635 2.709.023 4.46-2.59 4.47-4.99zM93.211 12.277c2.552-.018 3.827-.03 6.379-.065a1568.98 1568.98 0 0 1-1.774 6.866c2.098-2.306 4.189-4.618 6.271-6.938 2.59-.048 5.179-.104 7.768-.173a1221.919 1221.919 0 0 1-8.544 8.913c1.4 3.432 2.812 6.859 4.236 10.281-2.767.06-4.151.083-6.92.123-.968-2.44-1.45-3.66-2.408-6.103a793.362 793.362 0 0 1-2.683 2.7 1542.33 1542.33 0 0 1-.912 3.472 815.33 815.33 0 0 1-6.505.033 2322.309 2322.309 0 0 0 5.092-19.109zM112.78 11.943c5.424-.156 10.846-.348 16.267-.58-.475 2.117-.713 3.176-1.194 5.293-3.351.14-6.701.266-10.053.375l-.46 1.951c3.13-.098 6.259-.212 9.388-.342-.419 1.862-.629 2.793-1.052 4.654a968.67 968.67 0 0 1-9.432.332l-.518 2.089c3.428-.104 6.855-.223 10.281-.36-.479 2.114-.721 3.172-1.206 5.287-5.575.206-11.15.376-16.727.508a2384.583 2384.583 0 0 0 4.706-19.207zM131.116 11.27c2.702-.124 4.053-.191 6.754-.335 2.638-.193 5.568.243 7.61 2.024 1.503 1.312 2.279 3.138 2.425 5.45a10.47 10.47 0 0 1-2.709 7.706c-2.531 2.784-6.315 3.922-9.981 4.067-2.813.14-5.628.265-8.443.38a2312.104 2312.104 0 0 0 4.344-19.292zm4.544 13.32c1.96-.098 3.614-.76 4.553-1.795.756-.833 1.262-2.146 1.197-3.316-.059-1.035-.398-1.698-.918-2.16-.636-.566-1.614-.867-3.148-.786l-1.069.055c-.576 2.687-1.16 5.373-1.748 8.058l1.133-.055zM35.283 33.627c1.267.08 1.901.117 3.169.191.316 3.631.633 7.262.96 10.892a657.467 657.467 0 0 1-3.436-.203l-.095-1.451c-1.35-.083-2.026-.125-3.376-.213l-.917 1.385c-1.407-.093-2.11-.142-3.517-.241 2.425-3.439 4.83-6.892 7.212-10.36zm.542 6.874l-.134-2.622a925.683 925.683 0 0 1-1.626 2.512l1.76.11zM42.697 34.133c1.284.069 1.925.102 3.21.166 1.762.087 2.827.52 3.51 1.349.486.59.706 1.352.676 2.196-.094 2.684-1.974 4.401-5.03 4.248-.545-.028-.818-.04-1.363-.07l-.824 2.878a711.56 711.56 0 0 1-3.228-.178c1.024-3.526 2.04-7.056 3.048-10.589zM45 39.523c1.222.062 1.81-.525 1.84-1.338a.961.961 0 0 0-.209-.64c-.21-.256-.59-.366-.947-.384l-.602-.03c-.262.945-.395 1.418-.658 2.363l.576.03zM51.783 34.57c1.284.054 1.926.08 3.21.129 1.763.068 2.832.489 3.522 1.31.49.586.718 1.346.696 2.19-.071 2.684-1.936 4.422-4.993 4.302l-1.363-.054c-.319 1.154-.477 1.731-.798 2.886-1.292-.054-1.939-.082-3.23-.14.993-3.539 1.977-7.08 2.956-10.623zm2.35 5.364c1.222.048 1.804-.546 1.827-1.359a.962.962 0 0 0-.214-.638c-.212-.253-.594-.36-.95-.373l-.602-.024-.638 2.37.577.024zM59.413 40.953c.103-3.184 2.484-6.174 5.795-6.14 2.695.03 4.74 2.298 4.682 4.986-.068 3.206-2.47 6.202-5.796 6.163-2.706-.032-4.768-2.3-4.68-5.009zm7.24-.915c.022-1.135-.578-2.039-1.73-2.069-1.343-.035-2.24 1.412-2.271 2.762-.026 1.136.573 2.044 1.73 2.075 1.349.036 2.245-1.417 2.271-2.767zM72.05 35.212c1.285.04 1.929.062 3.217.106-.902 3.554-1.81 7.108-2.73 10.658a639.11 639.11 0 0 0-3.243-.097c.927-3.554 1.843-7.11 2.756-10.667zM76.342 35.355l3.019.106c.863 2.082 1.296 3.122 2.168 5.203.51-2.033.763-3.05 1.268-5.083 1.281.044 1.923.066 3.204.106-.868 3.556-1.745 7.109-2.63 10.66l-2.901-.1c-.913-2.17-1.367-3.254-2.27-5.423-.538 2.118-.81 3.177-1.352 5.296-1.292-.045-1.938-.068-3.227-.11.916-3.55 1.82-7.102 2.72-10.655zM88.798 38.81c-1.141-.031-1.712-.049-2.854-.085.295-1.206.442-1.81.734-3.016 2.973.085 5.944.157 8.917.21l-.706 3.028c-1.14-.018-1.71-.03-2.85-.055-.61 2.555-1.225 5.109-1.844 7.661-1.306-.033-1.96-.052-3.266-.091.627-2.55 1.251-5.1 1.869-7.651zM96.299 35.928c1.273.015 1.909.02 3.18.022.48 1.511.721 2.266 1.205 3.776a457.043 457.043 0 0 0 2.914-3.796 242.84 242.84 0 0 0 3.516-.07c-.787 3.602-1.582 7.201-2.387 10.799-1.289.021-1.935.028-3.228.034.486-2.133.728-3.2 1.208-5.335a425.219 425.219 0 0 1-3.101 3.832h-.056c-.54-1.53-.81-2.295-1.346-3.827-.492 2.127-.738 3.19-1.235 5.315a327.038 327.038 0 0 1-3.19-.046c.85-3.566 1.69-7.134 2.52-10.704zM108.152 35.834c2.721-.071 5.441-.156 8.161-.254l-.629 2.971c-2.012.071-3.017.103-5.03.162l-.237 1.096c1.877-.053 2.816-.084 4.693-.148l-.549 2.614a681.69 681.69 0 0 1-4.703.145l-.264 1.174c2.049-.056 3.075-.088 5.124-.157l-.626 2.97c-2.771.091-5.542.169-8.313.232.799-3.6 1.592-7.201 2.373-10.805zM117.352 35.542c1.197-.045 1.796-.068 2.993-.117.935 2.013 1.405 3.02 2.349 5.031.424-2.07.634-3.107 1.053-5.178 1.268-.057 1.902-.086 3.169-.148-.717 3.62-1.445 7.24-2.178 10.857a707.05 707.05 0 0 1-2.872.127c-.988-2.097-1.48-3.146-2.459-5.245-.45 2.155-.676 3.234-1.131 5.389-1.281.049-1.921.072-3.203.115.767-3.609 1.528-7.219 2.279-10.831zM129.803 38.026c-1.13.059-1.694.087-2.823.142l.606-3.072c2.942-.151 5.883-.314 8.825-.486l-.581 3.078c-1.129.068-1.693.1-2.822.163-.503 2.6-1.008 5.2-1.52 7.799-1.292.07-1.938.104-3.23.168a2915.12 2915.12 0 0 0 1.545-7.792zM134.941 43.72c.694-1.024 1.039-1.538 1.728-2.563 1.149.96 2.303 1.38 3.321 1.315.413-.027.694-.214.678-.52-.017-.337-.205-.435-1.634-.925-1.819-.625-2.693-1.28-2.768-2.858-.099-2.07 1.514-3.854 4.121-4.024 1.706-.112 3.254.395 4.349 1.317a881.788 881.788 0 0 1-1.699 2.58c-.762-.61-1.817-1.077-2.831-1.01-.41.026-.691.167-.675.473.016.322.224.372 1.582.834 1.665.567 2.752 1.26 2.842 2.899.118 2.16-1.39 3.96-4.164 4.137-1.917.123-3.624-.543-4.85-1.655z" fill="#000"/></svg>