<svg width="507" height="80" viewBox="0 0 507 80" fill="none" xmlns="http://www.w3.org/2000/svg"><path d="M505.998.997l-39.012 62.457s-102.755 16.34-217.035 16.34c-107.304 0-210.11-16.34-210.11-16.34L.642 1.274C10.678 13.3 119.928 22.768 253.216 22.768c134.313 0 244.209-9.616 252.782-21.772z" fill="#FED233"/><path d="M506.984 1.997l-38.973 62.257s-13.008 2.063-34.91 4.72l27.345-55.01c26.616-3.415 43.394-7.518 46.538-11.967z" fill="#FEDB60"/><path d="M32.552 26.413c1.08-6.695 7.778-10.446 14.153-9.575 3.512.48 6.825 2.837 7.219 6.591-2.458.676-3.689 1.011-6.156 1.672-.207-1.596-1.254-2.523-2.719-2.718-2.792-.372-5.158 1.804-5.566 4.487-.314 2.06.875 3.432 2.614 3.68 1.515.217 2.85-.311 4.09-1.432a815.806 815.806 0 0 0 4.075 4.078c-2.548 2.49-6.166 3.377-9.613 2.873-4.824-.706-8.939-4.445-8.097-9.656zM52.736 28.99c.834-6.152 6.844-10.365 12.886-9.657 4.907.575 9.3 4.45 8.704 9.705-.708 6.259-6.792 10.495-12.89 9.769-4.938-.588-9.42-4.501-8.7-9.817zm14.946-.136c.235-2.003-.836-3.718-3.178-4.002-2.733-.331-4.815 2.041-5.114 4.42-.251 2 .817 3.73 3.178 4.018 2.757.337 4.834-2.055 5.114-4.436zM79.403 21.286c2.434.26 3.65.387 6.086.632 1.172 3.17 2.355 6.334 3.55 9.495 1.132-2.938 2.258-5.879 3.375-8.822 2.581.242 3.872.358 6.455.584a2350.737 2350.737 0 0 1-6.985 18.523 849.15 849.15 0 0 1-5.894-.563 1211.606 1211.606 0 0 1-3.733-9.905 2152.22 2152.22 0 0 1-3.63 9.154c-2.628-.277-3.941-.42-6.567-.715a2324.671 2324.671 0 0 0 7.343-18.383zM104.055 29.027a841.765 841.765 0 0 1-5.767-.487c.781-2.098 1.17-3.148 1.945-5.247 5.995.505 11.992.965 17.993 1.383-.737 2.113-1.105 3.169-1.848 5.28-2.309-.16-3.464-.243-5.772-.416a2276.792 2276.792 0 0 1-4.854 13.346c-2.656-.21-3.983-.319-6.638-.546 1.659-4.433 3.306-8.87 4.941-13.313zM124.146 24.923c2.587.16 3.882.236 6.47.38.633 6.45 1.284 12.897 1.95 19.343a849.025 849.025 0 0 1-7.077-.396l-.188-2.577a841.678 841.678 0 0 1-6.942-.439c-.76.976-1.14 1.464-1.903 2.439a852.952 852.952 0 0 1-7.24-.52 1223.422 1223.422 0 0 0 14.93-18.23zm1.058 12.213c-.104-1.863-.155-2.794-.257-4.656a838.552 838.552 0 0 1-3.355 4.432c1.445.092 2.167.137 3.612.224zM133.886 36.748c.409-6.766 6.692-11.172 13.12-10.942 3.541.127 7.074 2.141 7.839 5.837a797.555 797.555 0 0 1-5.958 2.278c-.364-1.568-1.498-2.384-2.974-2.432-2.814-.09-4.951 2.309-5.089 5.02-.105 2.084 1.213 3.328 2.967 3.402 1.528.063 2.802-.596 3.924-1.834a780.266 780.266 0 0 0 4.461 3.649c-2.287 2.732-5.795 3.977-9.275 3.82-4.869-.22-9.333-3.532-9.015-8.798zM161.156 32.065c-2.314-.057-3.471-.09-5.785-.16.661-2.14.989-3.209 1.645-5.349 6.016.166 12.032.287 18.05.365a1735.23 1735.23 0 0 1-1.549 5.377c-2.316-.03-3.473-.048-5.788-.09-1.353 4.536-2.717 9.07-4.095 13.598a859.43 859.43 0 0 1-6.661-.169c1.408-4.52 2.802-9.044 4.183-13.572zM170.969 42.863a813.846 813.846 0 0 0 3.854-4.309c2.24 1.851 4.561 2.741 6.659 2.751.851.004 1.447-.294 1.449-.84.002-.598-.424-.899-3.246-1.84-2.429-.811-5.434-2.394-5.337-5.418.145-4.489 4.969-6.639 8.881-6.609 3.086.023 6.282.884 8.735 2.85a818.2 818.2 0 0 1-3.748 4.374c-1.494-1.17-3.599-2.123-5.677-2.131-.843-.003-1.434.212-1.437.756-.003.573.459.774 3.145 1.673 2.479.83 5.509 2.41 5.508 5.474-.001 4.738-4.927 6.883-9.01 6.83-3.514-.045-7.097-1.195-9.776-3.56zM99.059 64.196a1.8 1.8 0 0 1-.483-1.474c.024-.212.063-.416.116-.612a5.62 5.62 0 0 1 .213-.62c.692-1.763 1.037-2.645 1.726-4.41-.479-.052-.72-.079-1.2-.133.37-.933.555-1.4.923-2.334l1.198.133.973-2.48c1.135.124 1.702.186 2.838.308l-.967 2.483 2.357.254-.913 2.337c-.945-.1-1.416-.151-2.361-.254-.633 1.637-.95 2.455-1.586 4.092a1.333 1.333 0 0 0-.083.228c-.022.08-.036.15-.042.213-.043.398.191.626.705.682.226.025.47.023.733-.005a4.3 4.3 0 0 0 .769-.152l-.92 2.336c-.621.21-1.326.27-2.117.184-.867-.095-1.494-.354-1.879-.776zM107.034 65.45a2.67 2.67 0 0 1-.864-.658 2.636 2.636 0 0 1-.512-.914 2.647 2.647 0 0 1-.101-1.105c.061-.573.229-1.07.502-1.495.274-.424.62-.77 1.042-1.04a3.99 3.99 0 0 1 1.445-.556 6.053 6.053 0 0 1 1.732-.056c.551.058 1.049.15 1.498.278.449.128.879.281 1.291.462l.051-.127.11-.338c.037-.116.063-.249.078-.398a1.038 1.038 0 0 0-.327-.892c-.253-.246-.735-.405-1.448-.478a6.555 6.555 0 0 0-1.45.01c-.48.057-.909.141-1.287.253l-.214-2.288a10.293 10.293 0 0 1 1.775-.333 9.854 9.854 0 0 1 2.023.01c1.36.14 2.35.51 2.971 1.113.62.603.884 1.396.786 2.38a4.485 4.485 0 0 1-.143.76c-.069.245-.147.488-.234.73-.814 2.153-1.223 3.229-2.042 5.38-1.108-.11-1.662-.167-2.77-.28l.419-1.128a4.25 4.25 0 0 1-1.459.86 3.948 3.948 0 0 1-1.695.172 3.488 3.488 0 0 1-1.177-.322zm3.478-1.563c.28-.077.544-.199.788-.362.245-.163.462-.358.65-.584.187-.226.332-.473.436-.739l.102-.254a5.341 5.341 0 0 0-1.843-.547c-.601-.063-1.108.026-1.519.266-.412.24-.643.603-.694 1.089a.958.958 0 0 0 .277.803c.218.224.527.357.929.399.301.031.593.008.874-.07zM119.857 56.644c1.138.11 1.708.165 2.847.273l-.735 1.967c.583-.699 1.197-1.215 1.84-1.551.642-.336 1.372-.434 2.191-.296-.432 1.16-.649 1.74-1.082 2.898l-.151-.014c-.951-.089-1.804.12-2.559.627-.756.506-1.373 1.396-1.85 2.67-.52 1.383-.78 2.075-1.302 3.458-1.147-.111-1.721-.167-2.868-.281a2571.58 2571.58 0 0 0 3.669-9.75zM125.697 69.99c-.911-.33-1.685-.75-2.323-1.262.678-.72 1.016-1.082 1.692-1.804.496.398 1.05.722 1.662.973.611.25 1.238.405 1.881.463.478.043.899.014 1.264-.085.364-.1.697-.275.999-.524a2.81 2.81 0 0 0 .604-.71c.171-.28.329-.615.477-1.004l.125-.329c-.569.428-1.102.723-1.599.887-.496.163-1.059.217-1.688.16a4.396 4.396 0 0 1-1.384-.35 3.699 3.699 0 0 1-1.138-.774 3.179 3.179 0 0 1-.737-1.17c-.166-.455-.224-.97-.171-1.544a5.778 5.778 0 0 1 .685-2.283 6.316 6.316 0 0 1 1.411-1.756 5.78 5.78 0 0 1 1.866-1.085 4.88 4.88 0 0 1 2.073-.267 4.1 4.1 0 0 1 1.112.24c.317.122.591.275.821.458.23.184.419.388.569.615.151.227.285.457.403.694l.547-1.517c1.14.098 1.71.147 2.85.242-.945 2.628-1.893 5.254-2.845 7.88-.183.5-.352.924-.509 1.275-.157.35-.317.658-.478.92a5.013 5.013 0 0 1-.508.69 5.444 5.444 0 0 1-.592.571 4.488 4.488 0 0 1-1.764.892c-.67.174-1.472.219-2.405.135a11.583 11.583 0 0 1-2.9-.632zm5.579-5.53a3.056 3.056 0 0 0 1.736-1.412c.194-.342.308-.711.343-1.11.05-.574-.093-1.039-.428-1.394-.335-.356-.802-.56-1.403-.613a2.662 2.662 0 0 0-1.148.143c-.365.13-.692.321-.979.572-.287.25-.523.55-.706.898a2.908 2.908 0 0 0-.327 1.101c-.054.598.085 1.06.416 1.385.331.325.78.513 1.345.564.389.034.773-.01 1.151-.134zM141.127 66.028c.336.385.881.608 1.636.668.377.03.748-.003 1.11-.1.361-.097.761-.272 1.199-.527l1.183 1.861a6.115 6.115 0 0 1-1.707.819c-.656.205-1.419.274-2.288.204-.731-.058-1.378-.214-1.94-.467a4.125 4.125 0 0 1-1.4-1 3.764 3.764 0 0 1-.81-1.47c-.168-.567-.223-1.2-.164-1.898a5.88 5.88 0 0 1 .603-2.126 6.128 6.128 0 0 1 1.371-1.827 6.215 6.215 0 0 1 1.999-1.222c.76-.29 1.588-.4 2.488-.328.65.051 1.225.197 1.722.436.498.24.909.547 1.232.923.324.376.558.81.704 1.297.145.488.197 1.013.154 1.575-.028.362-.1.733-.217 1.113-.117.38-.273.757-.466 1.131-2.766-.211-4.149-.32-6.914-.545.001.604.17 1.098.505 1.483zm4.268-2.89c.079-.208.128-.423.145-.648a1.523 1.523 0 0 0-.303-1.079c-.235-.307-.646-.483-1.235-.53a2.694 2.694 0 0 0-1.766.452 3.5 3.5 0 0 0-1.225 1.455c1.754.143 2.63.213 4.384.35zM149.998 68.928a1.8 1.8 0 0 1-.538-1.455c.016-.213.049-.419.095-.616.046-.198.11-.407.19-.628.627-1.787.939-2.681 1.563-4.47l-1.203-.088.836-2.367 1.202.09.881-2.516c1.139.083 1.708.124 2.847.205l-.876 2.516c.946.068 1.419.1 2.365.167-.329.948-.495 1.422-.826 2.37l-2.369-.168c-.573 1.66-.86 2.49-1.436 4.148-.03.073-.055.15-.073.23-.019.081-.03.152-.035.215-.028.4.215.62.731.657.227.016.47.005.732-.033s.516-.097.762-.18l-.832 2.368c-.613.232-1.316.32-2.11.262-.87-.064-1.506-.3-1.906-.707zM166.399 57.28c1.529.097 2.293.144 3.823.236 1.274.077 2.316.295 3.123.655.807.36 1.447.805 1.919 1.333.897 1.002 1.303 2.31 1.213 3.922a7.204 7.204 0 0 1-.703 2.763 7.28 7.28 0 0 1-1.759 2.288c-.839.742-1.844 1.285-3.015 1.63-1.172.344-2.529.47-4.068.374-1.968-.123-2.951-.186-4.918-.315 1.473-4.291 2.933-8.587 4.385-12.886zm1.055 10.619a7.404 7.404 0 0 0 2.498-.252 5.098 5.098 0 0 0 2.015-1.075c.452-.4.809-.874 1.067-1.423a4.758 4.758 0 0 0 .442-1.78c.051-.874-.166-1.583-.65-2.125-.271-.304-.646-.558-1.124-.762-.477-.203-1.092-.328-1.843-.373l-1.409-.086a2640.32 2640.32 0 0 1-2.639 7.773l1.643.103zM180.752 68.667c.347.375.899.583 1.655.621a3.26 3.26 0 0 0 1.106-.132c.359-.107.753-.294 1.183-.561l1.237 1.827a6.147 6.147 0 0 1-1.683.867c-.65.224-1.412.315-2.283.27-.732-.037-1.383-.175-1.953-.412a4.116 4.116 0 0 1-1.428-.96 3.771 3.771 0 0 1-.851-1.446c-.185-.561-.257-1.192-.219-1.892.04-.724.221-1.438.543-2.142a6.143 6.143 0 0 1 3.282-3.143c.751-.312 1.578-.445 2.48-.4.651.034 1.23.162 1.734.387a3.73 3.73 0 0 1 1.257.889c.334.367.582.792.741 1.276.159.484.226 1.007.199 1.57-.017.362-.08.735-.186 1.118-.106.383-.25.765-.433 1.145-2.772-.132-4.157-.202-6.928-.348.018.602.201 1.09.547 1.466zm4.185-3.011a2.31 2.31 0 0 0 .127-.652 1.527 1.527 0 0 0-.334-1.069c-.243-.3-.661-.465-1.25-.495a2.698 2.698 0 0 0-1.753.503 3.504 3.504 0 0 0-1.183 1.49c1.757.092 2.636.136 4.393.223zM191.622 71.692a4.41 4.41 0 0 1-1.454-.986 4.127 4.127 0 0 1-.908-1.47c-.208-.566-.296-1.194-.263-1.882.038-.825.234-1.589.588-2.294a6.086 6.086 0 0 1 1.376-1.817 6.192 6.192 0 0 1 1.948-1.181 5.72 5.72 0 0 1 2.305-.371 5.77 5.77 0 0 1 1.479.238c.434.136.813.31 1.137.522.324.211.604.456.838.733.235.276.433.566.598.871l-2.249 1.45a3.698 3.698 0 0 0-.818-.983c-.309-.257-.748-.397-1.313-.42a2.29 2.29 0 0 0-1.104.235c-.36.173-.679.414-.957.722a3.986 3.986 0 0 0-.691 1.092 3.7 3.7 0 0 0-.304 1.324c-.029.653.137 1.179.498 1.578.361.4.826.611 1.393.636.441.018.842-.05 1.202-.203.36-.154.736-.386 1.128-.695.559.767.838 1.15 1.399 1.917a7.01 7.01 0 0 1-1.732 1.066c-.605.257-1.338.367-2.197.33a5.378 5.378 0 0 1-1.899-.412zM201.77 62.14l2.86.103c-1.023 3.32-2.051 6.64-3.085 9.957a1319.46 1319.46 0 0 1-2.88-.11c1.043-3.315 2.077-6.632 3.105-9.95zm1.055-3.607c1.201.044 1.802.066 3.003.107l-.783 2.509c-1.203-.042-1.805-.064-3.008-.109.316-1.002.474-1.504.788-2.507zM207.245 72.513a6.916 6.916 0 0 1-1.211-.378 6.68 6.68 0 0 1-1.126-.603 5.092 5.092 0 0 1-.975-.842l1.725-1.65c.511.544 1.035.92 1.571 1.125.536.206 1.032.315 1.486.33.378.012.677-.054.897-.197.219-.144.333-.359.342-.647.006-.187-.096-.357-.306-.507-.21-.15-.49-.312-.837-.468a15.03 15.03 0 0 1-1.116-.553 5.077 5.077 0 0 1-.916-.641 2.605 2.605 0 0 1-.614-.8c-.148-.3-.215-.65-.201-1.05.017-.5.128-.962.331-1.388.203-.425.482-.788.838-1.09a3.788 3.788 0 0 1 1.295-.699 4.984 4.984 0 0 1 1.702-.218 5.75 5.75 0 0 1 1.191.16c.38.092.741.212 1.081.36.341.148.651.31.928.488.278.176.52.362.729.556-.638.703-.957 1.054-1.598 1.757-.479-.403-.93-.692-1.352-.868a3.537 3.537 0 0 0-1.254-.282c-.353-.012-.628.055-.828.199a.743.743 0 0 0-.313.61c-.006.2.105.381.333.545.227.164.557.345.974.548.32.156.647.327.976.5.328.172.622.375.879.608.258.233.464.5.619.798.155.299.227.642.216 1.03a3.425 3.425 0 0 1-.356 1.474 3.27 3.27 0 0 1-.895 1.09 3.828 3.828 0 0 1-1.339.663 5.506 5.506 0 0 1-1.685.191 6.656 6.656 0 0 1-1.191-.15zM216.862 62.62c1.144.03 1.715.045 2.86.072-.986 3.332-1.977 6.663-2.977 9.99-1.152-.03-1.728-.046-2.881-.078 1.006-3.326 2.006-6.654 2.998-9.984zm1.015-3.617c1.202.03 1.802.046 3.004.074l-.756 2.517c-1.203-.03-1.804-.044-3.008-.076l.76-2.515zM223.185 72.715a4.457 4.457 0 0 1-1.514-1.001 4.204 4.204 0 0 1-.941-1.495 5.008 5.008 0 0 1-.295-1.876c.018-.75.186-1.472.505-2.166a6.054 6.054 0 0 1 1.287-1.83 6.203 6.203 0 0 1 1.884-1.254 5.444 5.444 0 0 1 2.298-.442c.753.015 1.425.143 2.017.386a4.46 4.46 0 0 1 1.508.993c.414.42.73.918.947 1.49.217.573.32 1.198.309 1.873a5.347 5.347 0 0 1-.499 2.17 6.154 6.154 0 0 1-3.181 3.099 5.43 5.43 0 0 1-2.295.444c-.757-.016-1.435-.147-2.03-.391zm3.422-2.326c.364-.207.674-.469.933-.786.258-.316.46-.668.606-1.056.146-.388.222-.766.229-1.13.014-.744-.178-1.317-.573-1.721-.395-.405-.919-.613-1.573-.626-.44-.008-.841.09-1.203.297a3.316 3.316 0 0 0-.933.784c-.258.316-.461.671-.608 1.065a3.405 3.405 0 0 0-.232 1.12c-.017.742.173 1.317.568 1.722.396.405.921.615 1.578.628.441.01.844-.09 1.208-.297zM234.69 62.975c1.145.016 1.717.023 2.862.036l-.295 1.039c.368-.32.78-.6 1.235-.843a3.121 3.121 0 0 1 1.529-.358c.904.009 1.624.275 2.16.799s.801 1.242.794 2.155a4.524 4.524 0 0 1-.111.929c-.072.33-.154.659-.245.984-.599 2.158-.901 3.236-1.505 5.394-1.154-.01-1.73-.016-2.883-.028.625-2.207.935-3.31 1.554-5.517a3.793 3.793 0 0 0 .142-.903c.004-.4-.116-.71-.359-.925-.242-.216-.584-.326-1.024-.33-.566-.007-1.034.173-1.403.54-.37.365-.64.848-.811 1.448-.64 2.258-.961 3.387-1.607 5.644-1.153-.015-1.73-.024-2.883-.042.956-3.338 1.907-6.68 2.85-10.022zM253.13 60.023c1.202 0 1.805 0 3.008-.003.764 2.221 1.146 3.332 1.916 5.552 1.963-2.23 2.941-3.346 4.889-5.582 1.338-.01 2.007-.015 3.346-.028a2484.629 2484.629 0 0 1-3.449 13.17c-1.184.008-1.776.011-2.96.017.758-2.863 1.513-5.727 2.264-8.592a1296.177 1296.177 0 0 1-5.154 5.636h-.076c-.853-2.22-1.279-3.33-2.125-5.553-.767 2.842-1.537 5.683-2.309 8.523-1.169 0-1.754-.001-2.923-.004 1.203-4.375 2.393-8.754 3.573-13.136zM267.689 73.082a2.683 2.683 0 0 1-.936-.554 2.644 2.644 0 0 1-.614-.849 2.649 2.649 0 0 1-.227-1.087c-.005-.575.105-1.09.327-1.541a3.43 3.43 0 0 1 .917-1.155 3.999 3.999 0 0 1 1.373-.718 6.062 6.062 0 0 1 1.717-.254 8.828 8.828 0 0 1 1.523.102c.461.076.906.179 1.337.31l.035-.131c.023-.113.048-.23.071-.349.024-.119.034-.254.032-.404a1.039 1.039 0 0 0-.427-.848c-.28-.215-.778-.318-1.496-.308a6.588 6.588 0 0 0-1.441.177 7.898 7.898 0 0 0-1.252.4l-.476-2.249a10.28 10.28 0 0 1 1.728-.536 9.922 9.922 0 0 1 2.014-.222c1.369-.018 2.396.235 3.083.763.687.527 1.039 1.285 1.055 2.274.005.262-.013.52-.053.77-.04.251-.09.502-.149.754-.562 2.232-.845 3.348-1.413 5.58l-2.789.039.288-1.169c-.399.444-.85.785-1.353 1.023a3.961 3.961 0 0 1-1.667.366 3.5 3.5 0 0 1-1.207-.184zm3.28-1.953c.27-.11.517-.26.742-.45.225-.191.418-.41.579-.656a2.69 2.69 0 0 0 .35-.784l.072-.263a5.351 5.351 0 0 0-1.897-.332c-.605.007-1.099.154-1.481.44-.382.286-.57.673-.564 1.161a.955.955 0 0 0 .368.766c.242.197.565.294.97.29.303-.005.59-.062.861-.172zM280.361 59.196a1133.6 1133.6 0 0 0 2.856-.058c-.706 2.854-1.06 4.28-1.775 7.134 1.613-1.415 2.417-2.123 4.021-3.542 1.492-.034 2.239-.053 3.731-.092-1.912 1.62-2.871 2.428-4.794 4.041.939 2.435 1.41 3.653 2.356 6.086-1.291.03-1.937.045-3.228.073-.613-1.691-.918-2.537-1.528-4.23-.573.478-.86.716-1.435 1.193a1159.46 1159.46 0 0 1-.776 3.113c-1.154.022-1.731.033-2.885.052a3428.31 3428.31 0 0 0 3.457-13.77zM292.227 70.022c.376.346.944.509 1.702.487a3.265 3.265 0 0 0 1.094-.22c.35-.135.73-.354 1.138-.654l1.38 1.722c-.443.39-.982.723-1.612.999-.632.276-1.383.426-2.257.452-.734.021-1.396-.064-1.983-.254a4.137 4.137 0 0 1-1.504-.842 3.767 3.767 0 0 1-.964-1.374c-.229-.545-.352-1.168-.37-1.869a5.89 5.89 0 0 1 .371-2.178 6.136 6.136 0 0 1 3.026-3.396c.725-.37 1.54-.57 2.444-.597.653-.02 1.24.063 1.761.247.522.184.964.445 1.327.784s.644.744.842 1.213c.198.47.306.986.324 1.549.012.363-.02.739-.095 1.13-.076.39-.19.782-.341 1.175-2.779.09-4.168.132-6.947.208.067.599.287 1.072.664 1.418zm3.938-3.336c.056-.215.082-.435.075-.66a1.524 1.524 0 0 0-.42-1.039c-.266-.28-.696-.41-1.287-.393a2.707 2.707 0 0 0-1.71.642 3.506 3.506 0 0 0-1.063 1.578c1.762-.048 2.643-.074 4.405-.128zM302.01 62.248c1.146-.04 1.718-.061 2.864-.104l-.472 2.047c.488-.77 1.029-1.363 1.624-1.78.594-.418 1.308-.611 2.139-.582-.277 1.206-.416 1.81-.695 3.015l-.151.006c-.957.037-1.777.357-2.461.958-.684.601-1.18 1.565-1.486 2.89l-.841 3.6-2.886.099a3183.37 3183.37 0 0 0 2.365-10.15zM310.583 72.104a6.95 6.95 0 0 1-1.238-.288 6.7 6.7 0 0 1-1.17-.517 5.12 5.12 0 0 1-1.037-.768c.642-.708.962-1.063 1.602-1.772.551.504 1.102.839 1.653 1.004.551.165 1.054.238 1.508.22.38-.017.674-.104.882-.264.209-.159.307-.382.295-.67-.008-.188-.123-.349-.343-.483a4.983 4.983 0 0 0-.871-.405 15.43 15.43 0 0 1-1.157-.468 5.11 5.11 0 0 1-.961-.572 2.609 2.609 0 0 1-.674-.752c-.169-.288-.262-.632-.278-1.032-.019-.5.057-.97.228-1.409a3.25 3.25 0 0 1 .757-1.148c.333-.327.747-.59 1.242-.793a4.991 4.991 0 0 1 1.685-.344c.414-.018.815.005 1.201.07a6.81 6.81 0 0 1 2.072.697c.29.156.545.323.768.5-.586.75-.879 1.124-1.467 1.871-.508-.365-.98-.62-1.414-.764a3.568 3.568 0 0 0-1.276-.19c-.352.015-.622.102-.811.26a.74.74 0 0 0-.267.631c.009.2.132.374.372.52.24.147.583.302 1.014.474.332.132.672.279 1.012.426.341.148.649.329.924.542.275.213.501.464.678.75.177.286.274.623.291 1.01a3.4 3.4 0 0 1-.248 1.497c-.189.447-.46.831-.813 1.154a3.851 3.851 0 0 1-1.289.76 5.524 5.524 0 0 1-1.67.316 6.79 6.79 0 0 1-1.2-.063z" fill="#000"/></svg>